<svg width="58" height="52" viewBox="0 0 58 52" fill="none" xmlns="http://www.w3.org/2000/svg">
<path d="M47.2275 5.80933H3.32275V40.8711H47.2275V5.80933Z" fill="#0D0D0D"/>
<path d="M4.80539 40.8343L4.66869 43.484H9.37935L9.87355 42.9373C10.9408 43.1686 12.0449 43.2895 13.1805 43.2895C14.3161 43.2895 15.4254 43.1633 16.4926 42.9373L16.9868 43.484H21.6975L21.5608 40.8343C23.4377 39.6303 25.0307 38.0373 26.2399 36.1552L30.8665 36.3918C31.2134 35.682 31.5184 34.946 31.776 34.1942L28.3376 31.087C28.569 30.0145 28.6951 28.9157 28.6951 27.7748C28.6951 26.634 28.569 25.5352 28.3376 24.4679L31.776 21.3608C31.5184 20.6037 31.2134 19.8677 30.8665 19.1579L26.2399 19.3945C25.036 17.5229 23.4377 15.9193 21.5608 14.7154L21.7974 10.0941C21.0876 9.74187 20.3516 9.43694 19.5945 9.17932L16.4926 12.6177C15.4254 12.3864 14.3213 12.2654 13.1805 12.2654C12.0396 12.2654 10.9408 12.3864 9.87355 12.6177L6.77166 9.17932C6.01985 9.44219 5.27855 9.74187 4.5688 10.0941L4.80539 14.7154C3.02838 15.8563 1.50372 17.3599 0.320801 19.1053V36.4286C1.50372 38.1846 3.02838 39.6777 4.80539 40.8185V40.8343ZM13.1805 17.0917C19.0846 17.0917 23.8688 21.876 23.8688 27.7801C23.8688 33.6842 19.0846 38.4685 13.1805 38.4685C7.27638 38.4685 2.49212 33.6842 2.49212 27.7801C2.49212 21.876 7.27638 17.0917 13.1805 17.0917Z" fill="#1C75BC"/>
<path d="M18.012 27.78C18.012 30.4456 15.8512 32.6064 13.1804 32.6064C10.5097 32.6064 8.35938 30.4508 8.35938 27.78C8.35938 25.1093 10.5202 22.959 13.1804 22.959C15.8407 22.959 18.012 25.1145 18.012 27.78Z" fill="#B00020"/>
<path d="M48.7048 4.60023H42.4064C45.666 5.49925 48.0687 8.48021 48.0687 12.029C48.0687 16.2875 44.6145 19.7416 40.356 19.7416C36.0975 19.7416 32.6434 16.2875 32.6434 12.029C32.6434 8.48021 35.0408 5.49925 38.3056 4.60023H32.0072C31.6182 5.03134 31.2554 5.48873 30.94 5.97767L27.6015 5.80944C27.3492 6.32466 27.1336 6.85566 26.9443 7.40244L29.4206 9.63684C29.2576 10.4044 29.163 11.2088 29.163 12.0237C29.163 12.8386 29.2523 13.643 29.4206 14.4106L26.9443 16.645C27.1336 17.2023 27.3492 17.7228 27.6015 18.238L30.94 18.0698C31.8075 19.4262 32.9588 20.5723 34.3152 21.445L34.147 24.7782C34.6622 25.0306 35.1932 25.2567 35.74 25.4407L37.9797 22.9592C38.7473 23.1274 39.5464 23.222 40.3665 23.222C41.1867 23.222 41.9858 23.1274 42.7534 22.9592L44.9931 25.4407C45.5346 25.2567 46.0656 25.0306 46.5808 24.7782L46.4126 21.445C47.7637 20.5723 48.9204 19.4262 49.7879 18.0698H49.9403V5.9619L49.7879 5.97242C49.4724 5.48348 49.1096 5.02608 48.7206 4.59497L48.7048 4.60023Z" fill="#FCD095"/>
<path d="M43.8362 12.029C43.8362 13.9585 42.28 15.5094 40.3558 15.5094C38.4316 15.5094 36.8701 13.9532 36.8701 12.029C36.8701 10.1048 38.4263 8.54858 40.3558 8.54858C42.2853 8.54858 43.8362 10.1048 43.8362 12.029Z" fill="#B00020"/>
<path d="M49.7723 18.0803L50.4979 18.1171V5.9462L49.7723 5.983C48.9049 4.63184 47.7482 3.48046 46.3971 2.61299L46.5285 0.0473633H43.6842L42.7379 1.09359C41.9703 0.925354 41.1712 0.83072 40.351 0.83072C39.5309 0.83072 38.7317 0.925354 37.9642 1.09359L37.0231 0.0473633H34.1736L34.305 2.61299C32.9538 3.47521 31.8025 4.63184 30.9297 5.983L27.5913 5.81476C27.3389 6.32999 27.1233 6.86099 26.9341 7.40776L29.4103 9.64217C29.2473 10.4098 29.1527 11.2141 29.1527 12.029C29.1527 12.8439 29.2421 13.6483 29.4103 14.4159L26.9341 16.6503C27.1233 17.2076 27.3389 17.7281 27.5913 18.2433L30.9297 18.0751C31.7972 19.4315 32.9486 20.5776 34.305 21.4504L34.1368 24.7836C34.652 25.0359 35.183 25.262 35.7298 25.446L37.9694 22.9645C38.737 23.1327 39.5361 23.2274 40.3563 23.2274C41.1765 23.2274 41.9756 23.1327 42.7432 22.9645L44.9828 25.446C45.5243 25.262 46.0553 25.0359 46.5706 24.7836L46.4023 21.4504C47.7535 20.5776 48.9101 19.4315 49.7776 18.0751L49.7723 18.0803ZM43.3215 1.28286H46.2972V4.25856H43.3215V1.28286ZM39.4152 1.28286H42.3909V4.25856H39.4152V1.28286ZM35.5089 1.28286H38.4899V4.25856H35.5089V1.28286ZM40.3563 19.7417C36.0978 19.7417 32.6436 16.2876 32.6436 12.029C32.6436 7.77052 36.0978 4.31639 40.3563 4.31639C44.6148 4.31639 48.0689 7.77052 48.0689 12.029C48.0689 16.2876 44.6148 19.7417 40.3563 19.7417Z" fill="#B00020"/>
<path d="M21.5609 40.8344C23.4378 39.6305 25.0308 38.0375 26.24 36.1553L30.8665 36.3919C31.2135 35.6821 31.5184 34.9461 31.7761 34.1943L28.3377 31.0871C28.569 30.0146 28.6952 28.9158 28.6952 27.775C28.6952 26.6341 28.569 25.5353 28.3377 24.468L31.7761 21.3609C31.5184 20.6038 31.2135 19.8678 30.8665 19.158L26.24 19.3946C25.036 17.523 23.4378 15.9195 21.5609 14.7155L21.7975 10.0942C21.0877 9.74199 20.3517 9.43706 19.5946 9.17944L16.4927 12.6178C15.4255 12.3865 14.3214 12.2656 13.1805 12.2656C12.0397 12.2656 10.9409 12.3865 9.87361 12.6178L6.77173 9.17944C6.01991 9.44231 5.27862 9.74199 4.56886 10.0942L4.80545 14.7155C2.92855 15.9195 1.33555 17.5177 0.126338 19.3946H0.0527344V36.1606H0.126338C1.33029 38.0375 2.92855 39.6305 4.80545 40.8344L4.63721 44.0677H8.85367L9.87361 42.9374C10.9409 43.1687 12.0449 43.2896 13.1805 43.2896C14.3161 43.2896 15.4255 43.1635 16.4927 42.9374L17.5127 44.0677H21.7239L21.5609 40.8344ZM13.1805 38.4686C7.2817 38.4686 2.49218 33.6843 2.49218 27.7802C2.49218 21.8761 7.27644 17.0919 13.1805 17.0919C19.0846 17.0919 23.8689 21.8761 23.8689 27.7802C23.8689 33.6843 19.0846 38.4686 13.1805 38.4686Z" fill="#B00020"/>
<path d="M46.7122 0H3.84318C1.71918 0 0 1.71918 0 3.84318V40.2666C0 42.3906 1.71918 44.1098 3.84318 44.1098H46.707C48.831 44.1098 50.5502 42.3906 50.5502 40.2666V3.84318C50.5502 1.71918 48.831 0 46.707 0H46.7122ZM43.3633 1.2355H46.3442V4.21646H43.3633V1.2355ZM39.4465 1.2355H42.4274V4.21646H39.4465V1.2355ZM35.5297 1.2355H38.5159V4.21646H35.5297V1.2355ZM47.28 40.9133H3.27538V5.77791H47.2748V40.9133H47.28Z" fill="#B00020"/>
<path d="M44.7301 18.3695C43.4841 19.2317 41.9805 19.7417 40.3559 19.7417C36.0974 19.7417 32.6433 16.2875 32.6433 12.029C32.6433 10.6779 32.9955 9.41607 33.6054 8.31201H27.9431L29.4152 9.63688C29.2522 10.4045 29.1576 11.2089 29.1576 12.0238C29.1576 12.8387 29.247 13.643 29.4152 14.4106L26.939 16.645C27.1282 17.2023 27.3438 17.7228 27.5961 18.238L30.9346 18.0698C31.8021 19.4262 32.9535 20.5723 34.3099 21.4451L34.1416 24.7783C34.6569 25.0306 35.1879 25.2567 35.7346 25.4407L37.9743 22.9592C38.7419 23.1274 39.541 23.2221 40.3612 23.2221C41.1813 23.2221 41.9805 23.1274 42.748 22.9592L44.7354 25.1621V18.359L44.7301 18.3695Z" fill="#B00020"/>
<path d="M39.3052 32.4377C39.3893 40.5913 42.2784 46.3429 48.1338 50.0073C53.9892 46.3353 56.8748 40.5836 56.9625 32.4377C55.283 32.3916 53.4843 31.9312 52.3974 28.7542H43.8738C42.7904 31.9312 40.9882 32.3916 39.3087 32.4377H39.3052Z" fill="#0D0D0D"/>
<path d="M48.1898 51.1625C47.9443 51.1625 47.7164 51.0973 47.5131 50.9668C41.3702 47.195 38.3794 41.2362 38.3794 32.7488C38.3794 31.9315 38.986 31.2638 39.7363 31.2638C41.1458 31.2638 42.0504 31.1027 42.7552 28.8657C42.9445 28.2671 43.4599 27.8643 44.0384 27.8643H52.3376C52.9162 27.8643 53.4316 28.2671 53.6209 28.8619C54.3292 31.0988 55.2338 31.26 56.6433 31.26C57.3901 31.26 58.0002 31.9276 58.0002 32.7449C58.0002 41.2324 55.0094 47.195 48.856 50.9706C48.6631 51.0934 48.4352 51.1587 48.1933 51.1587L48.1898 51.1625ZM40.0554 33.0941C40.136 40.6031 42.7972 45.902 48.1898 49.2824C53.5823 45.8981 56.2436 40.6031 56.3242 33.0941C54.778 33.0519 53.1195 32.626 52.1167 29.7022H44.2628C43.2636 32.6298 41.6051 33.0519 40.0554 33.0941Z" fill="#B00020"/>
<path d="M54.0098 34.0764C52.9194 34.0764 51.9692 33.9229 51.3521 31.9814C51.303 31.824 51.1698 31.7128 51.019 31.7128H45.2478C45.097 31.7128 44.9638 31.824 44.9112 31.9814C44.2976 33.9267 43.3474 34.0764 42.2605 34.0764C42.0641 34.0764 41.9028 34.2529 41.9028 34.4677C41.9028 40.112 43.8838 44.0679 47.9546 46.5696C48.0071 46.608 48.0703 46.6195 48.1334 46.6195C48.1965 46.6195 48.2526 46.608 48.3087 46.5735C52.3829 44.0679 54.3639 40.1081 54.3639 34.4677C54.3639 34.2529 54.2026 34.0764 54.0098 34.0764Z" fill="#B00020"/>
</svg>
