<svg width="341" height="31" viewBox="0 0 341 31" fill="none" xmlns="http://www.w3.org/2000/svg">
<path d="M35.1104 8.89518C34.3164 10.1189 33.8438 10.5078 33.4933 11.1144C33.8788 10.5288 34.3564 9.91522 35.1104 8.89518ZM35.1104 8.89518C35.2986 8.46504 35.571 8.21661 36.1888 7.41514C35.8193 7.93745 35.4618 8.39305 35.1104 8.89518ZM36.9297 8.87235C35.8904 10.0364 35.7132 10.6746 35.3126 11.0915C35.6911 10.5455 36.0626 10.0706 36.9297 8.87235ZM36.9297 8.87235C37.2441 8.43694 37.5014 7.90673 38.0081 7.39232C37.4714 8.22012 37.2221 8.49576 36.9297 8.87235ZM89.8796 10.4015C88.9714 11.4988 88.5559 12.0686 88.2625 12.6207C88.7091 12.0203 89.2177 11.3953 89.8796 10.4015ZM89.8796 10.4015C90.4173 9.75985 90.973 8.97243 91.4967 8.18149C90.6596 9.28757 90.2971 9.83007 89.8796 10.4015ZM91.6989 10.3778C91.0571 11.2522 90.6075 11.9781 90.0818 12.5979C90.7267 11.8789 91.2644 11.0274 91.6989 10.3778ZM91.6989 10.3778C92.3067 9.76336 92.6471 9.01983 93.316 8.15867C92.3798 9.47104 91.9813 9.86606 91.6989 10.3778ZM187.965 14.2912C187.347 15.2297 186.809 15.8889 186.348 16.5113C186.913 15.7493 187.466 15.0734 187.965 14.2912ZM187.965 14.2912C188.502 13.3669 189.406 12.4732 190.121 11.3321C189.475 12.3828 188.655 13.2993 187.965 14.2912ZM189.785 14.2684C188.806 15.349 188.426 15.9389 188.168 16.4876C188.72 15.673 189.329 14.9224 189.785 14.2684ZM189.785 14.2684C190.019 13.8567 190.506 13.2484 191.402 12.0492C190.71 12.9991 190.233 13.6803 189.785 14.2684ZM191.603 14.2456C191.377 14.7635 190.506 15.4948 189.986 16.4648C190.331 15.9986 190.686 15.5957 191.603 14.2456ZM191.603 14.2456C192.107 13.3941 192.96 12.6365 193.22 12.0264C192.386 13.1378 192.01 13.7593 191.603 14.2456ZM193.422 14.2228C192.823 15.155 192.352 15.7765 191.805 16.4419C192.311 15.6642 192.944 14.8311 193.422 14.2228ZM193.422 14.2228C193.902 13.7891 194.229 13.0605 195.039 12.0027C194.496 12.7963 194.023 13.546 193.422 14.2228ZM195.241 14.1991C194.855 14.7863 194.175 15.6229 193.624 16.4191C193.931 15.8749 194.404 15.4359 195.241 14.1991ZM195.241 14.1991C195.921 13.3774 196.528 12.5329 196.858 11.9799C196.398 12.6532 195.847 13.4406 195.241 14.1991ZM197.06 14.1762C196.71 14.8092 195.893 15.5562 195.443 16.3954C195.874 15.8801 196.168 15.3306 197.06 14.1762ZM197.06 14.1762C197.464 13.4749 198.203 12.7796 198.677 11.9571C197.818 13.1588 197.365 13.6882 197.06 14.1762ZM198.878 14.1534C198.355 14.925 197.818 15.7853 197.261 16.3726C197.813 15.709 198.208 15.0576 198.878 14.1534ZM198.878 14.1534C199.335 13.5995 199.661 13.1825 199.957 12.6743C199.613 13.1299 199.192 13.6864 198.878 14.1534ZM216.261 5.13803C215.969 5.55939 215.338 6.47761 214.644 7.3572C214.998 6.78397 215.464 6.3275 216.261 5.13803ZM216.261 5.13803C216.604 4.5569 217.16 3.9152 217.338 3.65887C216.755 4.49457 216.449 4.83956 216.261 5.13803ZM2.36841 29.0995C2.85103 28.7045 2.99521 28.0733 3.98548 26.8803C3.5349 27.5308 2.85503 28.2805 2.36841 29.0995ZM4.18674 29.0767C4.81555 28.485 5.19503 27.6484 6.3435 26.1175C5.76176 26.8847 5.02381 27.9732 4.18674 29.0767ZM6.00607 29.053C6.77606 28.3683 7.29673 27.4527 8.16183 26.0938C7.38684 27.2622 6.70597 28.2375 6.00607 29.053ZM7.8254 29.0301C8.65146 27.4123 10.1434 26.3563 10.5199 25.3309C9.38941 27.077 8.46522 27.9987 7.8254 29.0301ZM10.1824 28.2673C10.9003 27.4018 11.6163 26.3975 12.3392 25.3081C11.5492 26.351 10.8162 27.321 10.1824 28.2673ZM12.0018 28.2445C12.3893 27.5958 12.992 26.7662 14.1575 25.2853C13.5047 26.0736 12.7337 27.1683 12.0018 28.2445ZM13.8211 28.2217C14.3968 27.2718 14.9676 26.473 15.9769 25.2625C14.9475 26.6266 14.2887 27.3728 13.8211 28.2217ZM27.2964 9.72649C27.7489 9.27967 28.0553 8.65728 28.3747 8.24733C28.0754 8.63182 27.7119 9.21559 27.2964 9.72649ZM15.6394 28.1988C16.4024 26.9233 16.9821 25.9999 18.3349 24.4996C17.0292 26.408 16.4164 27.2394 15.6394 28.1988ZM28.576 10.4437C28.8213 9.82217 29.4872 9.45963 30.1931 8.22451C29.352 9.31654 28.9955 9.90557 28.576 10.4437ZM17.4588 28.1751C18.1857 27.0462 19.3572 25.7435 20.1532 24.4768C19.4603 25.4047 18.5742 26.8048 17.4588 28.1751ZM30.3953 10.4209C31.0422 9.70103 31.4927 9.08479 32.5511 7.46167C31.6499 8.76438 30.9581 9.59745 30.3953 10.4209ZM19.8168 27.4123C20.4426 26.8066 20.8301 26.2465 21.9725 24.454C20.783 26.1456 20.2824 26.7934 19.8168 27.4123ZM31.675 11.1372C32.5411 9.6826 33.4192 8.43255 34.3704 7.43884C32.8325 9.37096 32.2047 10.4059 31.675 11.1372ZM21.6351 27.3895C22.5983 26.1658 23.4204 24.8288 24.3306 23.6911C22.7095 25.8278 22.2269 26.6372 21.6351 27.3895ZM23.4544 27.3666C24.1183 26.1614 24.7551 25.2493 26.1489 23.6674C24.5799 25.7584 24.1433 26.602 23.4544 27.3666ZM25.2728 27.3438C25.9336 26.2035 26.6615 25.2765 27.9682 23.6446C27.2123 24.7718 26.3381 26.0604 25.2728 27.3438ZM36.5923 11.8078C36.9477 11.1582 37.5225 10.5683 38.2094 9.58867C37.6326 10.3568 37.135 11.0415 36.5923 11.8078ZM38.749 8.84865C39.3098 7.991 40.1428 7.17198 40.3661 6.62948C39.5741 7.76364 39.1145 8.35092 38.749 8.84865ZM27.6308 26.581C28.8193 25.4389 29.6133 23.8922 30.3262 22.8818C28.6401 24.9754 28.1705 25.9129 27.6308 26.581ZM38.4116 11.785C38.9153 10.9581 39.6001 10.3111 40.0287 9.56584C39.4059 10.3146 38.8862 11.1214 38.4116 11.785ZM40.5674 8.82583C41.1061 8.14989 41.5697 7.3809 42.1845 6.60665C41.3334 7.68113 40.9308 8.27279 40.5674 8.82583ZM29.4501 26.5582C30.2982 25.2686 31.4787 23.9457 32.1456 22.8589C31.3806 24.1502 30.4764 25.3871 29.4501 26.5582ZM40.2299 11.7622C40.7156 10.8273 41.4505 10.1259 41.847 9.54302C41.5316 10.0592 40.8758 10.8923 40.2299 11.7622ZM42.3867 8.803C42.6951 8.3992 42.8954 8.00241 44.0038 6.58383C43.5172 7.10175 43.0235 7.98047 42.3867 8.803ZM31.2685 26.5345C31.9003 25.3239 33.0277 24.4759 33.9639 22.8361C32.3148 24.8648 31.7401 25.8023 31.2685 26.5345ZM41.5106 12.4794C42.4838 11.3645 43.2458 10.4806 43.6664 9.5202C42.638 10.9836 42.0072 11.6367 41.5106 12.4794ZM44.205 8.78018C44.6035 8.14287 45.0742 7.488 45.8221 6.561C45.2504 7.36598 44.7227 8.08932 44.205 8.78018ZM33.0878 26.5116C33.9068 25.8032 34.1491 24.8551 35.7832 22.8133C34.3284 24.7498 33.8277 25.5987 33.0878 26.5116ZM43.3289 12.4557C44.0488 11.4725 44.6596 10.5402 45.4857 9.49649C44.204 11.1416 43.8185 11.8315 43.3289 12.4557ZM46.5631 8.01734C46.7363 7.78559 47.0126 7.47132 47.6414 6.5373C47.1578 7.23957 46.8234 7.65742 46.5631 8.01734ZM35.4458 25.7488C36.0896 25.1211 36.4942 24.6629 37.6016 22.7896C37.169 23.4076 36.391 24.4812 35.4458 25.7488ZM45.1482 12.4329C45.8471 11.5392 46.6602 10.6667 47.304 9.47367C46.3538 10.7834 45.6899 11.6121 45.1482 12.4329ZM48.3824 7.99451C48.886 7.34667 49.2625 6.49078 49.9995 5.77534C49.5319 6.31433 48.9171 7.11404 48.3824 7.99451ZM37.2641 25.726C37.919 24.8868 38.724 23.7438 39.4209 22.7668C38.2304 24.5172 37.7428 25.0123 37.2641 25.726ZM46.9666 12.41C47.7826 11.4286 48.1311 10.8273 49.1233 9.45085C48.3754 10.2585 47.6074 11.3724 46.9666 12.41ZM50.2007 7.97169C50.7014 7.11404 51.3993 6.09048 51.8178 5.75164C51.0438 6.9771 50.5782 7.42831 50.2007 7.97169ZM39.0835 25.7031C40.3391 24.3521 40.9949 22.9371 41.7789 22.0039C40.7096 23.4954 39.7263 24.6471 39.0835 25.7031ZM48.7859 12.3872C49.2715 11.5331 49.8212 10.736 50.403 10.1672C49.4968 11.5313 49.1794 11.9018 48.7859 12.3872ZM52.0201 7.94799C52.5948 7.03416 53.1115 6.30555 53.6371 5.72881C53.2897 6.30292 52.5738 7.13248 52.0201 7.94799ZM40.9028 25.6803C41.8931 24.1388 42.7452 22.8537 43.5973 21.9811C42.9054 22.7475 42.0603 24.2336 40.9028 25.6803ZM50.6052 12.3635C50.8556 11.9729 51.2841 11.3628 52.2223 10.1443C51.6175 10.8861 51.1099 11.6586 50.6052 12.3635ZM53.8394 7.92516C54.3591 7.3809 54.7245 6.88493 55.4565 5.70599C54.5183 6.90775 54.1528 7.44938 53.8394 7.92516ZM42.7211 25.6575C43.8866 24.454 44.6216 22.9467 45.4166 21.9583C44.9119 22.8238 43.6653 24.195 42.7211 25.6575ZM51.8849 13.0807C52.3505 12.2336 53.1465 11.253 54.0406 10.1215C52.8471 11.8781 52.3325 12.5101 51.8849 13.0807ZM55.6577 7.90234C56.0642 7.2185 56.3857 6.72779 57.2748 5.68317C56.653 6.49956 56.1443 7.20797 55.6577 7.90234ZM45.0792 24.8947C46.0574 23.5788 46.7753 22.5008 47.2349 21.9355C45.9603 23.7254 45.5518 24.3205 45.0792 24.8947ZM54.2429 12.3179C54.9158 11.433 55.2542 10.7018 55.86 10.0987C55.5716 10.6149 54.9458 11.4356 54.2429 12.3179ZM57.4771 7.87952C58.1109 7.10263 58.7026 6.31521 59.0941 5.65946C58.4122 6.60577 57.9687 7.22114 57.4771 7.87952ZM46.8985 24.871C47.7215 23.8017 48.3874 22.6219 49.0543 21.9118C47.7726 23.5393 47.285 24.2336 46.8985 24.871ZM56.0612 12.295C56.6099 11.627 57.0145 10.8563 57.6783 10.0759C57.0595 11.0599 56.5489 11.5989 56.0612 12.295ZM59.8351 7.11668C59.9993 6.87088 60.2826 6.39158 60.9125 5.63664C60.5119 6.26605 60.1355 6.6602 59.8351 7.11668ZM48.7168 24.8481C49.4307 23.8895 50.1797 23.0178 50.8736 21.8889C50.3569 22.6965 49.5799 23.7508 48.7168 24.8481ZM57.8806 12.2722C58.4113 11.6893 59.0411 10.7378 59.4976 10.0522C58.8298 11.0064 58.2881 11.6323 57.8806 12.2722ZM61.6534 7.09385C61.9077 6.6997 62.2111 6.30292 62.7318 5.61382C62.2882 6.1335 61.9748 6.66108 61.6534 7.09385ZM50.5362 24.8253C51.1339 24.1371 51.6456 23.1943 52.6919 21.8661C52.1953 22.5061 51.4203 23.7078 50.5362 24.8253ZM59.6989 12.2485C60.1775 11.6226 60.6241 11.0029 61.316 10.0293C60.568 11.1021 60.0864 11.6849 59.6989 12.2485ZM63.4727 7.07015C63.7761 6.53116 64.2177 5.93335 65.0898 4.85098C64.3809 5.82274 63.9103 6.50746 63.4727 7.07015ZM52.8942 24.0625C53.1765 23.4436 53.7473 22.902 54.5112 21.8433C53.7092 22.9371 53.3137 23.4313 52.8942 24.0625ZM61.5182 12.2257C61.8997 11.5954 62.5606 10.9072 63.1353 10.0065C62.128 11.3882 61.8627 11.8377 61.5182 12.2257ZM65.2911 7.04733C65.6265 6.5689 66.1261 6.09926 66.9081 4.82815C66.2383 5.68317 65.8227 6.40475 65.2911 7.04733ZM54.7125 24.0396C55.6016 22.7966 56.2024 21.7292 56.8693 21.0804C56.0032 22.4753 55.4054 23.29 54.7125 24.0396ZM62.7979 12.9429C63.1193 12.2257 63.9113 11.598 64.9546 9.98369C63.7952 11.4874 63.3356 12.2459 62.7979 12.9429ZM67.1104 7.0245C67.6381 6.10102 68.341 5.34081 68.7275 4.80533C67.8183 5.94739 67.4238 6.50746 67.1104 7.0245ZM56.5318 24.0168C57.427 22.7694 58.224 21.9311 58.6876 21.0576C58.187 21.8573 57.3779 22.823 56.5318 24.0168ZM64.6172 12.9201C65.0387 12.0931 65.5804 11.455 66.2343 10.7C65.6405 11.4225 65.1038 12.1362 64.6172 12.9201ZM68.9287 7.00168C69.5996 6.16861 70.0542 5.34081 70.5458 4.7825C69.8509 5.71828 69.3963 6.38807 68.9287 7.00168ZM58.3502 23.9931C59.2323 23.0407 59.8911 21.7932 60.5069 21.0339C59.4306 22.3902 58.977 23.3198 58.3502 23.9931ZM66.4355 12.8964C66.9582 12.2687 67.4258 11.39 68.0526 10.6772C67.3016 11.6138 66.8791 12.2222 66.4355 12.8964ZM70.7481 6.97886C71.0004 6.56276 71.5 5.98163 72.3651 4.7588C71.9476 5.4084 71.3018 6.20636 70.7481 6.97886ZM60.7082 23.2303C61.343 22.5341 61.7085 21.8442 62.3253 21.0111C61.9948 21.4649 61.364 22.3875 60.7082 23.2303ZM68.2549 12.8735C68.9187 12.0308 69.6697 11.0871 69.8719 10.6544C69.1891 11.5568 68.7575 12.2125 68.2549 12.8735ZM73.1061 6.21601C73.4856 5.64191 73.8881 5.17314 74.1845 4.73598C73.6358 5.44264 73.3314 5.81748 73.1061 6.21601ZM62.5275 23.2074C63.0762 22.5298 63.3045 22.0074 64.1446 20.9883C63.7551 21.4957 63.0842 22.3533 62.5275 23.2074ZM70.0742 12.8507C70.5628 12.0203 71.1436 11.0985 71.6913 10.6315C71.2097 11.2873 70.713 12.0747 70.0742 12.8507ZM74.9244 6.19231C75.2649 5.63137 75.8045 5.04147 76.0028 4.71315C75.4841 5.42069 75.1727 5.81045 74.9244 6.19231ZM64.3459 23.1846C64.8735 22.363 65.5534 21.6739 65.9629 20.9654C65.1229 22.14 64.6773 22.6588 64.3459 23.1846ZM71.8925 12.8279C72.4843 11.972 72.8908 11.2566 73.5096 10.6087C72.6956 11.6718 72.3381 12.3161 71.8925 12.8279ZM76.7437 6.16949C76.9881 5.84205 77.3645 5.40226 77.8221 4.69033C77.5448 5.10994 77.1493 5.59012 76.7437 6.16949ZM66.1652 23.1618C66.776 22.363 67.2486 21.4193 67.7823 20.9426C67.2486 21.7467 66.7009 22.4797 66.1652 23.1618ZM73.7119 12.8051C74.3226 11.9509 74.8774 11.3013 75.3289 10.585C74.4648 11.7719 74.0433 12.3495 73.7119 12.8051ZM78.5631 6.14666C79.1538 5.43298 79.4672 4.80445 80.1802 3.92749C79.276 5.08799 78.9726 5.56554 78.5631 6.14666ZM68.5232 22.399C68.6704 22.1163 69.0579 21.7055 69.6016 20.9189C69.3543 21.3473 68.9538 21.8442 68.5232 22.399ZM75.5302 12.7814C76.0128 12.1054 76.3082 11.4427 77.1473 10.5622C76.6787 11.1802 76.2031 11.9588 75.5302 12.7814ZM80.3814 6.12384C80.9231 5.14944 81.6831 4.26897 81.9985 3.90467C81.3477 4.7983 80.9001 5.48302 80.3814 6.12384ZM70.3425 22.3761C70.8452 21.4289 71.5891 20.6266 71.9596 20.1561C71.502 20.8979 70.9253 21.6449 70.3425 22.3761ZM77.3495 12.7585C77.691 12.195 78.4429 11.5138 78.9666 10.5394C78.539 11.0459 77.9423 11.9922 77.3495 12.7585ZM82.2007 6.10102C82.6253 5.41279 83.0869 4.88521 83.8178 3.88096C82.8185 5.24688 82.4611 5.61206 82.2007 6.10102ZM72.1609 22.3524C72.8257 21.5422 73.1962 20.8531 73.7779 20.1333C73.4085 20.6793 72.6956 21.493 72.1609 22.3524ZM79.1679 12.7357C79.7216 11.9176 80.2352 11.3426 80.7849 10.5165C80.07 11.4822 79.6014 12.1809 79.1679 12.7357ZM84.0191 6.07732C84.4086 5.34432 85.1856 4.69999 85.6361 3.85814C84.7951 4.91769 84.3926 5.50321 84.0191 6.07732ZM73.9802 22.3296C74.4368 21.8793 74.6801 21.3341 75.5973 20.1104C74.8373 21.1674 74.4638 21.7906 73.9802 22.3296ZM80.9872 12.7129C81.3917 12.0299 81.8563 11.2276 82.6043 10.4937C81.6751 11.6911 81.4117 12.1879 80.9872 12.7129ZM86.3771 5.31447C86.6705 4.92735 86.8387 4.56041 87.4555 3.83532C86.8447 4.60167 86.6234 5.00547 86.3771 5.31447ZM75.7985 22.3068C76.3202 21.4272 77.1292 20.6608 77.4156 20.0876C76.8909 20.9259 76.3122 21.5799 75.7985 22.3068ZM82.8065 12.6901C83.0428 12.0738 83.5795 11.4988 84.4236 10.47C83.959 11.1433 83.4263 11.9325 82.8065 12.6901ZM88.1964 5.29165C88.5008 4.67541 89.0085 4.26282 89.2738 3.81249C88.9754 4.18821 88.64 4.73422 88.1964 5.29165ZM78.1566 21.5439C78.4399 21.2911 78.5621 20.8619 79.2349 20.0648C78.9776 20.4036 78.6101 20.9575 78.1566 21.5439ZM84.6249 12.6664C85.0724 12.008 85.7883 11.1828 86.2419 10.4472C85.6221 11.3628 85.0624 11.9834 84.6249 12.6664ZM90.0148 5.26883C90.231 4.80006 90.6105 4.4735 91.0931 3.78967C90.6706 4.37606 90.3562 4.8659 90.0148 5.26883ZM79.9759 21.5211C80.1661 21.2007 80.3794 20.9426 81.0533 20.0411C80.6538 20.6187 80.3444 21.055 79.9759 21.5211ZM86.4442 12.6435C86.9428 11.9781 87.3694 11.1372 88.0613 10.4244C87.3083 11.3935 86.8397 12.058 86.4442 12.6435ZM89.1386 8.94433C89.3219 8.75999 89.447 8.47908 89.6783 8.20519C89.3769 8.64236 89.2257 8.80388 89.1386 8.94433ZM91.8341 5.246C92.3498 4.66312 92.6081 4.13993 92.9125 3.76597C92.6331 4.14344 92.2676 4.70701 91.8341 5.246ZM81.7942 21.4983C82.1307 20.9821 82.5822 20.3905 82.8726 20.0183C82.6473 20.3992 82.1717 20.9444 81.7942 21.4983ZM93.6534 5.22318C94.129 4.82464 94.3213 4.10393 95.2705 3.00313C94.5065 4.04688 94.0499 4.66663 93.6534 5.22318ZM83.6136 21.4755C83.8559 21.0216 84.2544 20.5353 84.6919 19.9954C84.1512 20.7872 83.8879 21.0822 83.6136 21.4755ZM95.4718 5.19948C95.8102 4.64732 96.1546 4.34446 97.0888 2.9803C96.1546 4.28653 95.8232 4.70701 95.4718 5.19948ZM85.4319 21.4518C85.9686 20.7109 86.4993 19.9033 87.049 19.2326C86.3 20.3343 85.7803 20.8873 85.4319 21.4518ZM91.9002 12.5742C92.515 11.9149 92.7703 11.3321 93.5172 10.355C92.9315 11.2337 92.3618 11.8166 91.9002 12.5742ZM94.0569 9.61588C94.6337 8.80739 95.2935 7.85494 95.674 7.39583C95.4127 7.89005 94.7078 8.72839 94.0569 9.61588ZM97.8298 4.43664C98.017 4.11974 98.2363 3.80898 98.9082 2.95748C98.6168 3.34197 98.2323 3.86165 97.8298 4.43664ZM87.2512 21.4289C87.6307 20.7662 88.0072 20.3211 88.8683 19.2098C88.4918 19.754 87.838 20.5687 87.2512 21.4289ZM93.7195 12.5514C94.095 11.8465 94.4755 11.2768 95.3366 10.3322C94.6477 11.2899 94.121 11.9211 93.7195 12.5514ZM95.8753 9.59218C96.476 8.73629 97.0107 8.05333 97.4923 7.373C96.5001 8.63095 96.2357 9.0883 95.8753 9.59218ZM99.1094 5.15383C99.7763 4.26721 100.283 3.43766 100.726 2.93465C99.9535 4.01703 99.571 4.53583 99.1094 5.15383ZM89.0705 21.4061C89.6633 20.5862 90.2661 19.733 90.6876 19.1869C90.2981 19.7997 89.6373 20.5371 89.0705 21.4061ZM95.5388 12.5285C95.8963 11.9105 96.455 11.4286 97.1559 10.3094C96.2918 11.5708 95.9203 12.0668 95.5388 12.5285ZM97.6946 9.56936C98.1031 9.10147 98.5627 8.32721 99.3117 7.35018C98.8471 7.9673 98.3094 8.76877 97.6946 9.56936ZM100.929 5.13101C101.26 4.47263 101.726 3.90115 102.546 2.91183C101.592 4.10218 101.221 4.68419 100.929 5.13101ZM90.8889 21.3833C91.5688 20.502 92.2356 19.6671 92.5059 19.1632C91.4896 20.4967 91.2473 20.8566 90.8889 21.3833ZM97.3572 12.5057C97.8608 11.843 98.4255 11.1293 98.9742 10.2865C98.3965 11.124 97.8037 11.7648 97.3572 12.5057ZM99.5129 9.54653C99.8734 9.0251 100.242 8.59144 101.13 7.32736C100.138 8.64763 99.9024 9.01807 99.5129 9.54653ZM102.747 5.10818C103.288 4.20225 104.143 3.34899 104.364 2.88813C103.863 3.43941 103.379 4.33832 102.747 5.10818ZM92.7082 21.3596C93.0056 20.9163 93.4662 20.5608 94.3253 19.1404C93.6194 20.0999 93.2119 20.7688 92.7082 21.3596ZM99.1765 12.4829C99.588 11.8245 100.16 11.1231 100.794 10.2628C100.064 11.2776 99.563 11.8359 99.1765 12.4829ZM101.332 9.52371C102.03 8.83373 102.441 7.92341 102.949 7.30453C102.341 8.10337 101.844 8.85128 101.332 9.52371ZM104.566 5.08448C104.91 4.59114 105.371 4.0302 106.183 2.86531C105.858 3.37357 105.183 4.20313 104.566 5.08448ZM95.0662 20.5976C95.3266 20.1938 95.5859 19.8717 96.1436 19.1176C95.5328 19.8559 95.3326 20.2202 95.0662 20.5976ZM100.995 12.4592C101.526 11.5322 102.097 10.9133 102.612 10.24C102.123 10.7983 101.621 11.5857 100.995 12.4592ZM103.152 9.50088C103.592 8.85392 104.077 8.47469 104.769 7.28083C103.768 8.62743 103.447 9.03036 103.152 9.50088ZM106.386 5.06166C106.76 4.28477 107.381 3.76772 108.003 2.84248C107.082 4.1171 106.655 4.549 106.386 5.06166ZM96.8846 20.5739C97.1038 20.3027 97.3752 19.8559 97.9629 19.0948C97.5965 19.6531 97.195 20.1271 96.8846 20.5739ZM102.814 12.4364C103.269 11.9088 103.701 11.2671 104.431 10.2172C103.602 11.4471 103.191 11.9158 102.814 12.4364ZM104.97 9.47718C105.323 8.96189 105.672 8.61339 106.587 7.25801C106.044 7.88215 105.506 8.66694 104.97 9.47718ZM108.204 5.03883C108.928 4.2795 109.451 3.46575 109.821 2.81966C109.348 3.42361 108.775 4.19172 108.204 5.03883ZM98.7039 20.5511C98.9582 20.0709 99.3137 19.6496 99.7813 19.072C99.4048 19.6074 99.0934 20.0543 98.7039 20.5511ZM104.632 12.4136C105.197 11.4988 105.978 10.6043 106.25 10.1944C105.271 11.4304 104.927 11.9422 104.632 12.4136ZM106.789 9.45436C107.363 8.88376 107.732 8.01295 108.406 7.23518C107.664 8.17359 107.209 8.803 106.789 9.45436ZM110.023 5.01601C110.55 4.2716 111.306 3.42537 111.64 2.79683C110.915 3.91432 110.384 4.40416 110.023 5.01601ZM100.522 20.5283C101.303 19.6794 101.82 18.7515 102.139 18.3091C101.264 19.5311 100.931 20.006 100.522 20.5283ZM106.452 12.3907C106.867 11.9097 107.131 11.4233 107.53 10.9107C107.058 11.5041 106.784 11.9904 106.452 12.3907ZM108.608 9.43153C109.256 8.61778 109.81 7.73028 110.225 7.21236C109.542 8.17447 109.052 8.8548 108.608 9.43153ZM111.842 4.99319C112.134 4.46824 112.767 3.89325 113.459 2.77313C112.979 3.44292 112.453 4.25229 111.842 4.99319ZM102.342 20.5055C103.058 19.6698 103.634 18.77 103.959 18.2863C103.36 19.0632 102.82 19.7532 102.342 20.5055ZM108.271 12.3679C108.752 11.8122 109.021 11.1819 109.349 10.8879C108.981 11.4506 108.653 11.9343 108.271 12.3679ZM110.427 9.40871C110.919 8.72751 111.534 7.90146 112.044 7.18866C111.46 7.89971 110.967 8.66606 110.427 9.40871ZM113.661 4.96948C114.031 4.3471 114.536 3.54387 115.278 2.75031C114.406 3.96524 114.055 4.39011 113.661 4.96948ZM104.16 20.4826C104.624 20.0007 105.001 19.2809 105.777 18.2626C105.436 18.7735 104.798 19.661 104.16 20.4826ZM110.089 12.3442C110.433 11.7227 110.987 11.2372 111.168 10.865C110.816 11.354 110.492 11.8588 110.089 12.3442ZM112.245 9.38501C113.098 8.31668 113.876 7.3335 114.402 6.42669C113.375 7.85933 112.892 8.64324 112.245 9.38501ZM115.479 4.94666C116.03 4.27599 116.389 3.56055 117.096 2.72748C116.457 3.65887 115.949 4.30584 115.479 4.94666ZM105.979 20.4589C106.433 19.9946 106.684 19.6382 107.596 18.2398C106.865 19.2361 106.377 19.8848 105.979 20.4589ZM111.369 13.0614C111.79 12.5136 112.079 11.8798 112.986 10.8422C112.078 12.1765 111.749 12.5654 111.369 13.0614ZM114.065 9.36219C114.521 8.84163 115.104 7.95413 115.682 7.14301C115.097 7.98925 114.594 8.63709 114.065 9.36219ZM117.299 4.92384C118.012 4.17592 118.675 3.1506 118.916 2.70466C118.096 3.93451 117.662 4.39362 117.299 4.92384ZM107.799 20.4361C108.356 19.7347 108.844 19.1948 109.416 18.2169C108.725 19.266 108.295 19.8155 107.799 20.4361ZM113.188 13.0386C113.588 12.604 113.927 11.9957 114.806 10.8194C114.074 11.9474 113.618 12.518 113.188 13.0386ZM115.884 9.33936C116.573 8.64236 116.91 7.77242 117.501 7.12019C116.971 7.79612 116.488 8.55457 115.884 9.33936ZM119.118 4.90101C119.82 4.09077 120.296 3.30686 120.735 2.68096C119.94 3.80108 119.459 4.39274 119.118 4.90101ZM109.617 20.4133C110.157 19.4959 110.843 18.7305 111.234 18.1941C110.401 19.4064 109.916 19.9226 109.617 20.4133ZM115.008 13.0157C115.581 12.3091 115.915 11.9018 116.624 10.7957C116.26 11.3303 115.582 12.2037 115.008 13.0157ZM117.702 9.31654C118.379 8.49313 118.893 7.45289 119.319 7.09736C119.034 7.5872 118.416 8.39042 117.702 9.31654ZM120.936 4.87731C121.51 4.3945 121.917 3.55441 122.553 2.65814C121.647 4.01878 121.306 4.46034 120.936 4.87731ZM111.436 20.3905C111.944 19.8962 112.337 19.3608 113.053 18.1704C112.141 19.4547 111.763 19.934 111.436 20.3905ZM116.826 12.992C117.369 12.2687 117.89 11.4787 118.443 10.7729C117.538 12.1151 117.133 12.5189 116.826 12.992ZM119.522 9.29371C120.096 8.68186 120.403 8.00593 121.139 7.07366C120.645 7.83738 119.997 8.56774 119.522 9.29371ZM122.756 4.85449C123.206 4.34446 123.571 3.91169 124.373 2.63531C123.545 3.70891 123.152 4.28916 122.756 4.85449ZM113.255 20.3668C113.805 19.4643 114.583 18.5382 114.872 18.1476C114.518 18.6769 113.904 19.5469 113.255 20.3668ZM118.645 12.9692C119.408 12.0791 120.027 11.3259 120.263 10.75C119.815 11.3417 119.261 12.1871 118.645 12.9692ZM121.88 8.53087C122.064 8.10073 122.453 7.7057 122.957 7.05084C122.556 7.70132 122.183 8.0744 121.88 8.53087ZM125.114 4.09164C125.598 3.5667 125.971 3.01542 126.191 2.61249C125.902 3.07686 125.459 3.56055 125.114 4.09164ZM115.613 19.6048C116.134 19.0807 116.543 18.2301 117.23 17.3847C116.873 17.8456 116.178 18.7375 115.613 19.6048ZM120.464 12.9464C120.944 12.3187 121.467 11.5638 122.081 10.7272C121.296 11.8886 120.848 12.3758 120.464 12.9464ZM123.698 8.50805C124.122 7.87249 124.512 7.42392 124.776 7.02801C124.574 7.38178 124.112 7.89444 123.698 8.50805ZM126.932 4.06882C127.223 3.59128 127.642 3.1822 128.01 2.58966C127.498 3.2419 127.201 3.61235 126.932 4.06882ZM117.432 19.5811C118.133 18.7182 118.601 17.8974 119.049 17.3619C118.659 17.8755 118.116 18.6602 117.432 19.5811ZM122.283 12.9236C122.724 12.1028 123.239 11.4321 123.9 10.7044C123.461 11.3206 122.822 12.1809 122.283 12.9236ZM125.517 8.48435C125.965 8.00944 126.258 7.35896 126.595 7.00519C126.025 7.78559 125.769 8.08142 125.517 8.48435ZM128.751 4.046C129.001 3.64746 129.315 3.23488 129.829 2.56596C129.451 3.05755 129.112 3.51139 128.751 4.046ZM119.25 19.5583C119.717 19.0035 120.108 18.4636 120.867 17.3391C120.357 18.051 119.752 18.8463 119.25 19.5583ZM124.101 12.9008C124.416 12.4583 124.841 12.0133 125.719 10.6807C125.212 11.275 124.7 12.0457 124.101 12.9008ZM127.336 8.46152C127.764 7.96467 128.126 7.43357 128.414 6.98237C128.097 7.40724 127.704 7.89356 127.336 8.46152ZM130.57 4.02317C130.753 3.77211 131.045 3.37357 131.648 2.54314C131.392 2.85828 131.031 3.4675 130.57 4.02317ZM121.07 19.5355C121.448 19.0676 121.647 18.518 122.687 17.3163C122.023 18.3372 121.49 18.8964 121.07 19.5355ZM125.921 12.877C126.267 12.3205 126.809 11.6885 127.538 10.6579C127.145 11.2127 126.509 12.058 125.921 12.877ZM129.155 8.4387C129.512 7.93745 130.012 7.34404 130.233 6.95866C129.556 7.78383 129.352 8.08932 129.155 8.4387ZM132.389 4.00035C132.63 3.67731 132.844 3.27262 133.467 2.52031C132.884 3.23575 132.694 3.61498 132.389 4.00035ZM122.889 19.5126C123.398 18.8674 123.729 18.4882 124.506 17.2935C123.849 18.2161 123.311 18.8973 122.889 19.5126ZM127.74 12.8542C127.945 12.3012 128.517 12.0045 129.356 10.6351C128.47 11.8096 128.183 12.3855 127.74 12.8542ZM130.973 8.41588C131.207 7.94272 131.569 7.58281 132.052 6.93584C131.665 7.52838 131.311 7.95326 130.973 8.41588ZM134.207 3.97665C134.398 3.59918 134.635 3.25243 135.286 2.49749C134.957 3.02858 134.59 3.44995 134.207 3.97665ZM124.707 19.4898C125.211 18.7998 125.658 18.0949 126.324 17.2697C126.061 17.7095 125.352 18.5918 124.707 19.4898ZM129.558 12.8314C130.18 12.1502 130.415 11.591 131.176 10.6122C130.286 11.8131 129.981 12.3855 129.558 12.8314ZM132.793 8.39217C133.162 7.84001 133.629 7.15267 133.871 6.91302C133.358 7.57052 133.134 7.98574 132.793 8.39217ZM136.027 3.95382C136.323 3.46399 136.781 2.86092 137.105 2.47467C136.452 3.34724 136.23 3.63868 136.027 3.95382ZM126.527 19.4661C127.027 18.8314 127.291 18.3188 128.144 17.2469C127.413 18.1169 126.988 18.856 126.527 19.4661ZM131.378 12.8086C131.998 12.044 132.574 11.1144 132.995 10.5885C132.056 11.893 131.765 12.3275 131.378 12.8086ZM134.612 8.36935C134.9 7.82597 135.351 7.29488 135.689 6.89019C135.2 7.45025 134.966 7.95062 134.612 8.36935ZM137.846 3.931C138.088 3.60006 138.424 3.09969 138.923 2.45097C138.287 3.32968 138.095 3.58952 137.846 3.931ZM128.345 19.4433C128.578 18.8771 129.26 18.3521 129.962 17.2241C129.417 18.0159 128.813 18.7199 128.345 19.4433ZM133.196 12.7849C133.656 12.0923 134.238 11.4488 134.813 10.5657C134.213 11.2776 133.679 11.9887 133.196 12.7849ZM136.43 8.34653C136.908 7.79788 137.297 7.3414 137.509 6.86737C137.302 7.15179 136.855 7.76189 136.43 8.34653ZM139.664 3.90818C139.928 3.42537 140.351 3.03034 140.743 2.42814C140.374 2.92412 140.081 3.40693 139.664 3.90818ZM130.164 19.4205C130.585 18.6567 131.35 17.6613 132.32 16.4613C131.322 17.9035 130.684 18.6831 130.164 19.4205ZM135.015 12.7621C135.49 12.238 135.682 11.6841 136.633 10.5429C135.703 11.8219 135.358 12.2863 135.015 12.7621ZM138.25 8.3237C138.468 7.91024 138.761 7.5793 139.327 6.84367C138.855 7.54506 138.499 7.9199 138.25 8.3237ZM141.484 3.88448C141.697 3.60532 141.909 3.26384 142.561 2.40532C142.325 2.71432 141.894 3.25068 141.484 3.88448ZM131.983 19.3976C132.739 18.3688 133.567 17.3014 134.139 16.4384C133.151 17.5989 132.524 18.5172 131.983 19.3976ZM136.834 12.7392C137.427 12.1476 137.815 11.5243 138.451 10.5201C137.657 11.6174 137.241 12.2213 136.834 12.7392ZM140.608 7.56086C140.776 7.3177 140.902 7.15003 141.146 6.82084C141.013 7.01221 140.812 7.30365 140.608 7.56086ZM143.302 3.86165C143.633 3.51929 143.914 3.09354 144.38 2.38249C143.812 3.08038 143.542 3.49647 143.302 3.86165ZM133.802 19.3739C134.621 18.4127 135.307 17.5366 135.958 16.4156C135.14 17.5498 134.453 18.482 133.802 19.3739ZM138.653 12.7164C139.267 11.7315 139.886 11.0389 140.27 10.4972C139.477 11.5673 139.037 12.0703 138.653 12.7164ZM142.426 7.53804C142.606 7.25801 142.826 6.90599 142.966 6.79802C142.686 7.16935 142.575 7.3335 142.426 7.53804ZM145.121 3.83883C145.531 3.19801 145.986 2.67218 146.2 2.35967C145.915 2.80035 145.48 3.33846 145.121 3.83883ZM136.16 18.612C136.792 17.6104 137.871 16.3428 138.316 15.6528C137.393 16.8264 136.802 17.7552 136.16 18.612ZM140.472 12.6936C140.789 12.015 141.157 11.6007 142.09 10.4735C141.337 11.6402 140.904 12.1827 140.472 12.6936ZM144.245 7.51521C144.371 7.3019 144.564 7.11141 144.784 6.7752C144.534 7.12809 144.365 7.32823 144.245 7.51521ZM146.94 3.816C147.229 3.40957 147.633 2.9013 148.018 2.33597C147.664 2.79332 147.296 3.36041 146.94 3.816ZM137.978 18.5883C138.739 17.57 139.728 16.3647 140.135 15.6291C138.808 17.4488 138.487 17.9 137.978 18.5883ZM142.291 12.6699C142.825 11.9887 142.985 11.4506 143.908 10.4507C143.17 11.4479 142.702 12.0089 142.291 12.6699ZM146.064 7.49151C146.199 7.24308 146.429 7.03855 146.603 6.75237C146.437 6.94813 146.284 7.23343 146.064 7.49151ZM148.759 3.79318C149.188 3.24014 149.393 2.78718 149.837 2.31315C149.595 2.61249 149.14 3.25331 148.759 3.79318ZM139.798 18.5654C140.472 17.7605 141.044 16.7395 141.953 15.6062C140.871 16.9458 140.444 17.7359 139.798 18.5654ZM144.11 12.6471C144.486 12.2081 144.859 11.5427 145.727 10.4279C145.291 10.9923 144.798 11.8228 144.11 12.6471ZM147.883 7.46869C147.965 7.27117 148.108 7.07717 148.422 6.72867C148.102 7.15618 148.011 7.30102 147.883 7.46869ZM150.578 3.76948C150.739 3.44995 151.023 3.11373 151.656 2.29032C151.228 2.84424 150.958 3.35163 150.578 3.76948ZM141.617 18.5426C142.232 17.9273 142.702 17.1855 143.773 15.5834C142.49 17.2346 142.105 17.8579 141.617 18.5426ZM145.928 12.6242C146.444 11.8816 147.035 11.1723 147.546 10.4051C146.771 11.4593 146.319 12.0106 145.928 12.6242ZM149.702 7.44587C149.9 7.20622 149.97 7.05259 150.241 6.70585C150.112 6.89634 149.887 7.19129 149.702 7.44587ZM152.397 3.74665C152.794 3.15938 153.098 2.60283 153.475 2.2675C153.22 2.61424 152.776 3.14972 152.397 3.74665ZM143.435 18.5198C144.094 17.8166 144.216 17.39 145.591 15.5606C144.566 16.9572 144.023 17.7455 143.435 18.5198ZM147.748 12.6014C148.21 12.0405 148.418 11.5383 149.365 10.3822C149.049 10.8642 148.429 11.713 147.748 12.6014ZM151.521 7.42304C151.729 7.12633 151.853 6.92882 152.059 6.68302C151.885 6.97183 151.709 7.18339 151.521 7.42304ZM154.216 3.72383C154.587 3.16816 154.973 2.57825 155.293 2.24467C154.911 2.65726 154.585 3.2498 154.216 3.72383ZM145.255 18.497C145.938 17.7025 146.509 16.7378 147.41 15.5378C146.853 16.3366 145.987 17.4348 145.255 18.497ZM149.566 12.5786C149.914 12.1151 150.098 11.7991 150.644 11.0985C150.428 11.3733 149.974 12.037 149.566 12.5786ZM153.34 7.39934C153.505 7.15003 153.738 6.92618 153.879 6.6602C153.723 6.85332 153.55 7.13511 153.34 7.39934ZM156.034 3.70101C156.345 3.20152 156.756 2.83897 157.113 2.22097C156.62 2.8776 156.345 3.32705 156.034 3.70101ZM147.073 18.4733C148.019 17.196 148.965 16.1189 149.23 15.5141C148.731 16.14 148.01 17.2961 147.073 18.4733ZM151.385 12.5549C151.554 12.1739 151.822 11.8904 152.464 11.0757C152.141 11.498 151.749 12.0413 151.385 12.5549ZM155.158 7.37652C155.26 7.24221 155.421 7.12106 155.698 6.63738C155.419 7.04206 155.268 7.22289 155.158 7.37652ZM157.854 3.67818C158.121 3.24716 158.399 2.99961 158.932 2.19815C158.473 2.82141 158.119 3.23488 157.854 3.67818ZM148.892 18.4504C149.356 17.6727 149.872 16.6693 151.048 15.4913C149.77 17.1767 149.334 17.7824 148.892 18.4504ZM153.205 12.5321C153.549 12.1836 153.739 11.8315 154.282 11.0529C153.955 11.4848 153.593 12.0633 153.205 12.5321ZM156.978 7.35369C157.195 7.12897 157.389 6.79714 157.516 6.61367C157.359 6.85332 157.156 7.10526 156.978 7.35369ZM159.672 3.65448C160.052 3.33407 160.29 2.86882 160.75 2.17532C160.384 2.60898 160.024 3.18045 159.672 3.65448ZM150.711 18.4276C151.576 17.3786 152.104 16.5227 152.867 15.4684C152.235 16.334 151.523 17.4365 150.711 18.4276ZM155.023 12.5092C155.452 11.8728 155.852 11.2987 156.101 11.0301C155.657 11.6358 155.319 12.116 155.023 12.5092ZM158.796 7.33087C158.936 7.06752 159.125 6.91389 159.336 6.59085C159.041 6.99553 158.92 7.15706 158.796 7.33087ZM161.491 3.63166C161.71 3.25419 161.853 3.01103 162.57 2.1525C162.268 2.66077 161.897 3.09442 161.491 3.63166ZM152.53 18.4048C153.232 17.1916 154.209 16.0373 154.686 15.4456C153.962 16.4621 153.165 17.5112 152.53 18.4048ZM156.842 12.4864C157.118 12.1116 157.485 11.5857 157.92 11.0064C157.319 11.7859 157.102 12.1976 156.842 12.4864ZM160.615 7.30804C161.092 6.78046 161.523 6.2283 161.694 5.82801C161.399 6.20636 161.071 6.74623 160.615 7.30804ZM163.311 3.60883C163.575 3.05228 164.056 2.56245 164.388 2.12968C163.885 2.87584 163.619 3.25068 163.311 3.60883ZM154.349 18.3811C154.761 17.7956 155.379 17.0995 156.505 15.4228C156.04 16.0908 155.181 17.311 154.349 18.3811ZM158.661 12.4636C159.147 11.9939 159.438 11.3408 159.739 10.9836C159.301 11.5076 159.032 11.9931 158.661 12.4636ZM162.435 7.28434C162.713 7.02011 162.905 6.6839 163.512 5.80519C163.04 6.51711 162.696 6.86035 162.435 7.28434ZM165.129 3.58601C165.505 2.94958 165.932 2.48696 166.207 2.10598C165.902 2.52558 165.529 3.06019 165.129 3.58601ZM156.706 17.6191C157.258 16.9344 157.545 16.5464 158.323 15.3991C157.94 16.0452 157.303 16.7782 156.706 17.6191ZM159.94 13.1799C160.343 12.5198 160.798 11.9764 161.557 10.9607C161.261 11.4207 160.558 12.3424 159.94 13.1799ZM164.253 7.26152C164.762 6.67249 165.173 6.07468 165.331 5.78236C165.075 6.13789 164.661 6.6918 164.253 7.26152ZM166.948 3.56319C167.28 3.16114 167.62 2.57737 168.026 2.08315C167.37 2.94607 167.217 3.22961 166.948 3.56319ZM158.526 17.5954C159.208 16.8335 159.781 15.795 160.143 15.3763C159.517 16.2146 159.009 16.9081 158.526 17.5954ZM161.76 13.1571C162.072 12.7173 162.477 12.2775 163.377 10.9379C162.983 11.5024 162.341 12.3266 161.76 13.1571ZM166.072 7.2387C166.313 6.76115 166.703 6.48288 167.15 5.75954C166.661 6.50394 166.312 6.83665 166.072 7.2387ZM168.767 3.53948C169.159 3.08828 169.635 2.45711 169.845 2.06033C169.487 2.501 169.102 3.03209 168.767 3.53948ZM160.345 17.5726C160.938 16.7009 161.526 15.9363 161.962 15.3534C161.576 15.9758 160.882 16.7738 160.345 17.5726ZM163.579 13.1343C164.01 12.374 164.58 11.8552 165.196 10.9151C164.689 11.6735 164.17 12.3986 163.579 13.1343ZM167.891 7.21587C168.15 6.86386 168.424 6.61719 168.969 5.73584C168.741 6.07819 168.3 6.64967 167.891 7.21587ZM170.586 3.51666C170.999 2.92675 171.367 2.55631 171.664 2.0375C171.445 2.37196 171.057 2.97152 170.586 3.51666ZM162.163 17.5498C162.863 16.679 163.439 15.9161 163.78 15.3306C163.147 16.0803 162.736 16.8624 162.163 17.5498ZM165.397 13.1114C165.994 12.3934 166.699 11.3127 167.014 10.8914C166.232 12.0299 165.757 12.5084 165.397 13.1114ZM169.71 7.19305C170.095 6.85069 170.335 6.33277 170.787 5.71301C170.248 6.47849 169.919 6.80943 169.71 7.19305ZM172.404 3.49384C172.639 3.13919 172.824 2.9013 173.483 2.01468C173.241 2.33334 172.794 2.88286 172.404 3.49384ZM163.983 17.527C164.345 16.8712 164.872 16.1409 165.6 15.3078C164.763 16.3787 164.44 16.9028 163.983 17.527ZM167.217 13.0877C167.552 12.5514 167.929 11.8939 168.834 10.8686C168.348 11.4567 167.81 12.238 167.217 13.0877ZM171.528 7.16935C171.71 6.77695 171.971 6.48639 172.607 5.69019C172.163 6.31784 171.851 6.72604 171.528 7.16935ZM174.224 3.47101C174.563 2.90744 175.05 2.20956 175.302 1.99098C175.057 2.26925 174.674 2.89427 174.224 3.47101ZM165.801 17.5041C166.035 17.0213 166.625 16.4191 167.418 15.2841C167.034 15.7327 166.492 16.5842 165.801 17.5041ZM169.035 13.0649C169.699 12.2222 170.252 11.5752 170.652 10.8457C170.104 11.548 169.537 12.3205 169.035 13.0649ZM173.348 7.14652C173.713 6.62596 174.165 6.17914 174.426 5.66736C173.99 6.23269 173.623 6.71638 173.348 7.14652ZM175.503 4.18733C175.699 3.84058 176.167 3.22083 177.12 1.96815C176.258 3.26823 175.875 3.71856 175.503 4.18733ZM167.62 17.4804C168.285 16.6825 168.719 15.7002 169.237 15.2613C168.841 15.8319 168.205 16.6333 167.62 17.4804ZM170.854 13.0421C171.352 12.0765 172.146 11.3154 172.471 10.8229C171.594 12.1581 171.239 12.6181 170.854 13.0421ZM175.167 7.1237C175.501 6.62684 175.804 6.25113 176.244 5.64454C175.942 6.04922 175.491 6.57066 175.167 7.1237ZM177.323 4.16451C177.768 3.27789 178.398 2.72134 178.94 1.94533C178.55 2.55718 177.88 3.39815 177.323 4.16451ZM169.978 16.7176C170.269 16.3682 170.513 15.9547 171.056 15.2384C170.732 15.6168 170.395 16.2111 169.978 16.7176ZM172.673 13.0193C173.132 12.3187 173.702 11.5454 174.29 10.7992C173.663 11.728 173.228 12.3512 172.673 13.0193ZM176.985 7.10087C177.449 6.46269 177.881 5.90789 178.064 5.62084C177.509 6.31609 177.285 6.74886 176.985 7.10087ZM179.141 4.14168C179.896 3.29896 180.247 2.32895 180.758 1.92251C179.88 3.02683 179.554 3.65624 179.141 4.14168ZM171.797 16.6948C172.145 16.3647 172.379 15.9302 172.875 15.2156C172.543 15.6923 172.172 16.1768 171.797 16.6948ZM173.953 13.7356C174.804 12.9288 175.491 11.8535 176.109 10.7764C175.464 11.692 174.586 12.6936 173.953 13.7356ZM178.805 7.07805C179.014 6.6602 179.301 6.26956 179.882 5.59802C179.55 6.0027 179.189 6.53818 178.805 7.07805ZM180.96 4.11886C181.407 3.33056 182.051 2.85653 182.577 1.89881C181.589 3.18133 181.23 3.64658 180.96 4.11886ZM173.616 16.6719C174.005 16.1303 174.39 15.7414 174.694 15.1919C174.513 15.5316 174.086 16.1189 173.616 16.6719ZM175.772 13.7128C176.466 12.8604 176.985 12.2494 177.928 10.7536C176.91 12.0528 176.372 12.834 175.772 13.7128ZM180.084 7.79437C180.748 6.97534 181.12 6.31609 181.701 5.57519C181.229 6.15281 180.659 6.95428 180.084 7.79437ZM182.78 4.09516C183.137 3.74314 183.365 3.11812 184.397 1.87598C183.446 3.12602 183.127 3.68696 182.78 4.09516ZM175.435 16.6491C175.778 16.1075 176.211 15.7133 176.513 15.1691C176.206 15.5439 175.817 16.1373 175.435 16.6491ZM177.591 13.6899C178.067 13.0412 178.494 12.468 179.747 10.7307C178.586 12.3319 178.185 13.057 177.591 13.6899ZM181.904 7.77154C182.301 7.15618 182.523 6.81031 183.521 5.55237C182.768 6.58997 182.32 7.19129 181.904 7.77154ZM184.598 4.07233C185.052 3.54826 185.333 2.91183 186.215 1.85316C185.869 2.33246 185.296 3.24541 184.598 4.07233ZM177.254 16.6263C177.729 16.0943 177.96 15.5861 178.332 15.1463C178.065 15.5492 177.664 16.0478 177.254 16.6263ZM179.409 13.6671C180.018 12.9613 180.596 12.1932 181.026 11.4471C180.543 12.1599 180.052 12.9403 179.409 13.6671ZM183.722 7.74872C184.384 6.80768 185.051 6.02377 185.339 5.52954C184.846 6.29502 184.231 7.03679 183.722 7.74872ZM186.417 4.04951C186.85 3.36128 187.392 2.6476 188.034 1.83033C187.598 2.50451 186.988 3.34109 186.417 4.04951ZM179.073 16.6026C179.6 15.9591 179.964 15.4263 180.15 15.1234C179.507 15.9486 179.299 16.2787 179.073 16.6026ZM181.229 13.6434C181.567 13.2466 182.075 12.7831 182.846 11.4242C182.122 12.3626 181.692 12.9561 181.229 13.6434ZM185.541 7.7259C185.753 7.29049 186.273 6.84455 187.158 5.50584C186.407 6.60051 185.91 7.11492 185.541 7.7259ZM188.236 4.02669C188.756 3.25507 189.254 2.63356 189.853 1.80751C189.425 2.54138 188.814 3.22434 188.236 4.02669ZM180.891 16.5798C181.329 15.946 181.749 15.493 181.97 15.1006C181.535 15.7397 181.244 16.1303 180.891 16.5798ZM183.048 13.6206C183.431 13.2106 183.846 12.5277 184.665 11.4014C183.781 12.6155 183.47 13.1272 183.048 13.6206ZM187.36 7.70219C187.834 7.10087 188.25 6.4504 188.977 5.48302C188.286 6.47059 187.804 7.09649 187.36 7.70219ZM190.055 4.00386C190.313 3.61673 190.691 3.25507 191.133 2.52383C190.677 3.13217 190.341 3.61937 190.055 4.00386ZM182.711 16.5569C183.063 16.1259 183.337 15.5316 183.789 15.0769C183.484 15.5404 183.126 16.061 182.711 16.5569ZM184.866 13.5978C185.34 12.856 185.939 12.216 186.483 11.3786C185.772 12.3697 185.264 12.9596 184.866 13.5978ZM189.179 7.67937C189.466 7.23167 189.981 6.57154 190.796 5.4602C189.992 6.52852 189.609 7.01309 189.179 7.67937ZM191.873 3.98016C192.287 3.46487 192.818 2.8574 192.952 2.501C192.647 2.81878 192.276 3.39289 191.873 3.98016ZM184.529 16.5341C184.794 16.0381 185.043 15.7265 185.607 15.0541C185.28 15.5861 184.839 16.0513 184.529 16.5341ZM186.686 13.5749C186.966 13.0333 187.464 12.6699 188.303 11.3558C187.442 12.5189 187.097 13.0816 186.686 13.5749ZM190.997 7.65655C191.658 6.89283 192.16 5.81923 192.614 5.43737C191.773 6.61894 191.36 7.10351 190.997 7.65655ZM193.693 3.95734C193.984 3.4675 194.283 3.11022 194.771 2.47818C194.421 2.99347 194.037 3.44556 193.693 3.95734ZM192.817 7.63372C193.488 6.99466 193.838 6.05274 194.434 5.41367C193.96 6.12735 193.331 6.80153 192.817 7.63372ZM195.512 3.93451C195.969 3.31125 196.228 2.88462 196.589 2.45535C196.042 3.18484 195.763 3.60883 195.512 3.93451ZM194.636 7.61002C195.178 6.85157 195.688 5.92369 196.253 5.39085C195.528 6.33189 195.156 6.98061 194.636 7.61002ZM196.792 4.65171C197.23 4.13027 197.549 3.75017 198.409 2.43165C197.621 3.48681 197.236 4.10393 196.792 4.65171ZM196.454 7.5872C196.894 6.75062 197.568 6.08522 198.071 5.36802C197.55 5.92369 197.104 6.72077 196.454 7.5872ZM198.61 4.628C199.002 3.83005 199.7 3.15236 200.227 2.40883C199.455 3.51139 199.009 4.08199 198.61 4.628ZM198.274 7.56437C198.632 7.05084 199.185 6.32223 199.891 5.3452C199.104 6.48814 198.703 6.94813 198.274 7.56437ZM200.429 4.60518C200.863 3.89325 201.513 2.9961 202.046 2.38601C201.275 3.45609 200.756 4.07409 200.429 4.60518ZM200.092 7.54155C200.73 6.69619 201.338 6.05186 201.709 5.32237C201.322 5.72706 200.748 6.61719 200.092 7.54155ZM202.249 4.58236C202.558 4.04688 202.941 3.63605 203.326 3.10232C202.992 3.52281 202.597 4.08023 202.249 4.58236ZM201.911 7.51873C202.349 7.04908 202.604 6.55749 203.528 5.29867C202.753 6.47761 202.266 6.94111 201.911 7.51873ZM204.067 4.55953C204.435 4.02317 204.861 3.43941 205.145 3.0795C204.795 3.5272 204.443 4.06707 204.067 4.55953ZM203.73 7.49502C204.331 6.69882 204.903 5.73847 205.347 5.27585C204.553 6.2959 204.111 6.85771 203.73 7.49502ZM205.886 4.53671C206.264 4.08287 206.455 3.66853 206.964 3.05667C206.692 3.34987 206.331 3.92486 205.886 4.53671ZM199.081 16.3498C199.521 15.7458 200.006 15.2577 200.159 14.8706C199.789 15.3973 199.389 15.8389 199.081 16.3498ZM200.698 14.1306C201.001 13.7514 201.16 13.4239 201.776 12.6506C201.353 13.244 200.984 13.6961 200.698 14.1306ZM205.549 7.4722C205.922 7.01309 206.25 6.39158 207.166 5.25303C206.29 6.54959 205.834 6.99466 205.549 7.4722ZM207.705 4.51301C207.86 4.27599 208.172 3.816 208.783 3.03385C208.335 3.57635 208.049 4.06531 207.705 4.51301ZM200.9 16.327C201.302 15.8178 201.609 15.3991 201.977 14.8469C201.616 15.3183 201.228 15.8354 200.9 16.327ZM202.517 14.1078C202.903 13.6302 203.266 13.1553 203.594 12.6277C203.389 12.9394 202.896 13.4775 202.517 14.1078ZM207.368 7.44938C207.995 6.87966 208.498 5.92896 208.985 5.2302C208.572 5.85347 207.893 6.65054 207.368 7.44938ZM209.524 4.49018C209.753 3.98982 210.226 3.70276 210.602 3.01103C210.116 3.70452 209.769 4.11184 209.524 4.49018ZM202.718 16.3041C203.084 15.7458 203.653 14.8891 205.414 12.6049C203.982 14.5212 203.251 15.5272 202.718 16.3041ZM209.187 7.42655C209.559 6.88932 209.805 6.48288 210.804 5.20738C210.062 6.09751 209.645 6.82172 209.187 7.42655ZM211.342 4.46736C211.615 4.11096 211.989 3.65097 212.421 2.98732C212.118 3.4122 211.76 3.92134 211.342 4.46736ZM204.538 16.2804C205.478 14.8171 206.569 13.488 207.232 12.5821C205.773 14.4975 205.262 15.4105 204.538 16.2804ZM211.006 7.40373C211.408 6.89809 211.529 6.38193 212.623 5.18368C212.292 5.7332 211.589 6.5768 211.006 7.40373ZM213.162 4.44454C213.498 4.06092 213.689 3.64395 214.24 2.9645C213.704 3.73261 213.399 4.11271 213.162 4.44454ZM206.356 16.2576C206.94 15.421 207.356 14.7776 208.513 13.2984C207.813 14.1359 207.033 15.2139 206.356 16.2576ZM212.824 7.38003C213.295 6.77081 213.859 5.8719 214.441 5.16085C213.621 6.22918 213.297 6.75852 212.824 7.38003ZM214.981 4.42083C215.173 4.14607 215.361 3.9073 215.52 3.68169C215.224 4.10657 215.099 4.26107 214.981 4.42083ZM208.175 16.2348C208.834 15.2147 209.685 13.7865 210.331 13.2756C209.21 14.839 208.713 15.5571 208.175 16.2348ZM209.994 16.212C210.592 15.2095 211.185 14.2596 212.15 13.2528C211.657 13.9296 210.807 15.0471 209.994 16.212ZM216.462 7.33438C217.084 6.21689 218.232 5.05727 219.157 3.63517C218.123 5.17578 217.328 6.21952 216.462 7.33438ZM211.813 16.1891C212.376 15.2261 213.097 14.4984 213.969 13.2299C213.268 14.2386 212.519 15.2419 211.813 16.1891ZM218.281 7.31156C219.178 6.39334 220.154 5.0362 220.977 3.61235C220.109 4.85536 219.237 6.15369 218.281 7.31156ZM213.632 16.1654C214.253 15.4219 214.835 14.4256 215.788 13.2062C214.761 14.5283 214.196 15.3798 213.632 16.1654ZM220.101 7.28873C220.527 6.54696 221.437 5.61118 222.795 3.58952C221.825 4.83956 221.123 6.03079 220.101 7.28873ZM215.451 16.1426C215.942 15.4245 216.706 14.4414 217.068 13.9234C216.516 14.6099 215.984 15.3982 215.451 16.1426ZM221.919 7.26503C222.838 6.06854 223.341 5.21264 224.614 3.5667C223.308 5.14856 222.632 6.24235 221.919 7.26503ZM217.27 16.1198C217.639 15.5685 218.165 14.6705 218.887 13.9006C218.577 14.4229 217.953 15.263 217.27 16.1198ZM223.738 7.24221C224.49 5.71038 225.523 4.41381 226.433 3.54387C225.469 4.81498 224.729 5.94915 223.738 7.24221ZM219.088 16.097C219.586 15.4948 219.846 14.9962 220.705 13.8778C219.895 15.0076 219.504 15.6256 219.088 16.097ZM225.557 7.21938C226.194 6.29765 226.676 5.31096 228.252 3.52017C227.512 4.33481 226.453 5.75427 225.557 7.21938ZM220.908 16.0741C221.409 15.3921 221.728 14.8741 222.525 13.8541C222.048 14.5195 221.486 15.2674 220.908 16.0741ZM227.376 7.19656C227.679 6.52677 228.382 5.99392 229.532 4.23737C228.79 5.30043 228.094 6.3512 227.376 7.19656ZM222.726 16.0504C223.015 15.6027 223.264 15.2586 224.343 13.8313C223.359 15.155 223.012 15.6238 222.726 16.0504ZM229.194 7.17373C229.881 6.07995 230.734 5.09853 231.351 4.21454C230.388 5.58748 229.8 6.36964 229.194 7.17373ZM224.545 16.0276C224.955 15.5834 225.208 15.1094 225.624 14.5485C225.305 14.9751 224.965 15.5448 224.545 16.0276ZM231.014 7.15003C231.64 6.08522 232.546 5.07834 233.169 4.19084C231.952 5.80343 231.578 6.48639 231.014 7.15003ZM226.365 16.0048C226.686 15.4175 227.266 14.9575 227.442 14.5256C227.085 15.0699 226.688 15.5308 226.365 16.0048ZM232.833 7.12721C233.209 6.31433 233.759 5.62786 234.989 4.16802C233.927 5.78148 233.399 6.34857 232.833 7.12721ZM228.183 15.982C228.57 15.4333 229.069 14.7776 229.261 14.5019C229.014 14.8118 228.623 15.3798 228.183 15.982ZM234.651 7.10439C235.389 5.9272 236.323 4.75968 236.807 4.14519C235.999 5.28726 235.395 6.23884 234.651 7.10439ZM230.002 15.9591C230.449 15.4535 230.849 14.767 231.08 14.4791C230.625 15.0971 230.36 15.5483 230.002 15.9591ZM236.471 7.08156C237.123 6.15193 237.926 5.07307 238.626 4.12237C237.833 5.34256 237.166 6.23972 236.471 7.08156ZM231.821 15.9354C232.124 15.5141 232.555 14.9549 232.899 14.4563C232.595 14.8961 232.212 15.4359 231.821 15.9354ZM238.289 7.05874C238.883 6.48024 239.079 5.77797 240.446 4.09955C239.893 5.02654 239.069 6.0738 238.289 7.05874ZM233.64 15.9126C233.982 15.3894 234.364 15.0936 234.718 14.4335C234.44 14.8206 233.996 15.3324 233.64 15.9126ZM240.108 7.03504C240.678 6.0343 241.52 4.88784 242.264 4.07584C241.711 4.69735 241.012 5.84557 240.108 7.03504ZM235.458 15.8898C235.861 15.3104 236.352 14.7267 236.537 14.4098C236.072 14.9962 235.742 15.4237 235.458 15.8898ZM241.926 7.01221C242.701 6.20987 243.157 5.21089 243.544 4.79304C242.749 5.87629 242.372 6.42582 241.926 7.01221ZM236.739 16.6061C237.184 16.0162 237.546 15.4544 238.356 14.3869C237.46 15.7054 237.148 16.0847 236.739 16.6061ZM243.746 6.98939C244.442 6.07029 245.128 5.27936 245.363 4.77021C244.949 5.40752 244.31 6.16334 243.746 6.98939ZM238.557 16.5833C238.855 16.1918 239.144 15.8793 239.636 15.1041C239.146 15.7344 238.879 16.1145 238.557 16.5833ZM245.565 6.96657C245.947 6.54257 246.235 6.0106 246.643 5.48653C246.09 6.18529 245.868 6.62333 245.565 6.96657ZM240.377 16.5605C240.676 16.2365 240.911 15.8117 241.454 15.0813C241.177 15.4983 240.759 16.0531 240.377 16.5605ZM242.195 16.5376C242.52 16.0452 242.944 15.5729 243.273 15.0576C242.979 15.4008 242.579 15.9662 242.195 16.5376ZM244.014 16.5148C244.315 16.0961 244.725 15.6431 245.093 15.0348C244.762 15.4017 244.423 15.9802 244.014 16.5148ZM245.834 16.4911C246.244 15.9978 246.719 15.3069 246.911 15.012C246.558 15.5395 246.2 15.9925 245.834 16.4911ZM247.652 16.4683C247.936 16.0311 248.385 15.4368 248.73 14.9891C248.312 15.5308 247.976 15.9539 247.652 16.4683ZM249.471 16.4455C249.838 15.9381 250.225 15.2314 250.549 14.9663C250.063 15.5799 249.793 16.0539 249.471 16.4455ZM251.29 16.4226C251.555 15.9504 251.866 15.543 252.368 14.9426C252.115 15.2823 251.736 15.8152 251.29 16.4226ZM252.569 17.139C253.116 16.4165 253.794 15.464 254.186 14.9198C253.554 15.6335 253.163 16.4349 252.569 17.139ZM254.388 17.1161C254.868 16.7597 254.972 16.1303 256.006 14.897C255.462 15.687 254.858 16.4455 254.388 17.1161ZM256.208 17.0933C256.546 16.5236 256.744 16.2567 257.825 14.8741C257.367 15.5413 256.838 16.3006 256.208 17.0933ZM258.026 17.0705C258.303 16.5359 258.966 15.8635 259.643 14.8513C259.232 15.522 258.614 16.2962 258.026 17.0705ZM259.845 17.0477C260.528 16.2471 260.936 15.3956 261.463 14.8276C261.118 15.3332 260.488 16.2076 259.845 17.0477ZM261.664 17.024C262.353 16.3234 262.922 15.3938 263.281 14.8048C262.361 16.1145 262.063 16.5095 261.664 17.024ZM263.483 17.0011C263.817 16.2989 264.343 15.8529 265.1 14.782C264.248 16.0311 263.911 16.5008 263.483 17.0011ZM265.302 16.9783C265.516 16.4937 265.95 16.212 266.38 15.4983C265.73 16.3164 265.484 16.6965 265.302 16.9783ZM267.121 16.9555C267.426 16.4964 267.846 15.9319 268.199 15.4755C267.872 15.8494 267.52 16.4261 267.121 16.9555ZM268.94 16.9327C269.244 16.4455 269.66 15.9425 270.018 15.4526C269.649 16.0338 269.299 16.4613 268.94 16.9327ZM270.22 17.649C270.538 16.9502 271.036 16.4885 271.837 15.4298C271.382 15.9881 270.798 16.8668 270.22 17.649ZM272.038 17.6262C272.599 16.7597 273.149 16.0934 273.655 15.407C272.738 16.5719 272.398 17.0766 272.038 17.6262ZM273.857 17.6033C274.177 17.1539 274.714 16.521 275.475 15.3833C275.052 15.9688 274.467 16.8142 273.857 17.6033ZM275.677 17.5796C276.291 16.8484 276.787 16.0996 277.294 15.3605C276.524 16.3191 276.058 17.0143 275.677 17.5796ZM277.495 17.5568C277.889 17.1126 278.25 16.6123 279.112 15.3376C278.503 16.1338 278.009 16.8607 277.495 17.5568ZM279.314 17.534C279.728 17.024 280.199 16.5218 280.932 15.3148C280.543 15.9056 279.986 16.6307 279.314 17.534ZM281.133 17.5112C281.444 16.9353 281.799 16.4797 282.211 16.0311C281.708 16.6526 281.432 17.0924 281.133 17.5112ZM282.952 17.4883C283.316 17.0362 283.491 16.5429 284.03 16.0083C283.459 16.8019 283.17 17.1618 282.952 17.4883ZM284.77 17.4646C285.161 16.9142 285.366 16.564 285.849 15.9855C285.561 16.3392 285.167 16.9353 284.77 17.4646ZM286.051 18.1818C286.463 17.5665 286.713 17.1943 287.668 15.9627C287.138 16.6281 286.63 17.4427 286.051 18.1818ZM287.869 18.159C288.451 17.5542 288.743 16.9766 289.486 15.9398C288.644 17.1758 288.31 17.6402 287.869 18.159ZM289.689 18.1353C290.077 17.383 290.866 16.6693 291.306 15.9161C290.525 17.009 290.111 17.5208 289.689 18.1353ZM291.507 18.1125C292.178 17.2803 292.486 16.5701 293.124 15.8933C292.15 17.153 291.776 17.613 291.507 18.1125ZM293.326 18.0897C293.707 17.4743 294.283 17.0011 294.943 15.8705C294.322 16.6737 293.811 17.4084 293.326 18.0897ZM295.146 18.0668C295.587 17.4251 295.87 16.9959 296.223 16.5868C295.65 17.3733 295.394 17.6937 295.146 18.0668ZM296.964 18.044C297.241 17.6437 297.397 17.2741 298.042 16.564C297.737 16.952 297.377 17.5243 296.964 18.044ZM298.783 18.0203C299.039 17.6604 299.448 17.1521 299.861 16.5411C299.624 16.8896 299.237 17.4005 298.783 18.0203ZM300.602 17.9975C300.816 17.6955 301.19 17.2899 301.68 16.5183C301.271 17.0424 300.972 17.5138 300.602 17.9975ZM301.882 18.7147C302.32 18.0879 302.485 17.764 303.499 16.4955C302.776 17.4989 302.266 18.1265 301.882 18.7147ZM303.701 18.6918C304.168 17.915 304.948 17.0916 305.318 16.4718C304.77 17.318 304.244 17.9545 303.701 18.6918ZM305.52 18.6681C306.126 18.0115 306.714 17.16 307.137 16.449C306.644 17.0784 306.13 17.8281 305.52 18.6681ZM307.338 18.6453C307.81 17.7578 308.631 16.9151 308.955 16.4261C308.122 17.555 307.698 18.0528 307.338 18.6453ZM309.158 18.6225C309.496 18.116 309.988 17.5989 310.235 17.1425C309.983 17.4304 309.616 18.0054 309.158 18.6225ZM310.976 18.5997C311.423 18.1239 311.708 17.555 312.054 17.1196C311.51 17.915 311.239 18.2415 310.976 18.5997ZM312.795 18.5769C313.03 18.094 313.378 17.6718 313.874 17.0968C313.405 17.7719 313.086 18.1177 312.795 18.5769ZM314.615 18.5531C314.855 18.2204 315.19 17.8368 315.692 17.074C315.244 17.7087 314.942 18.1221 314.615 18.5531ZM316.433 18.5303C316.942 17.864 317.252 17.354 317.511 17.0512C316.84 17.9115 316.674 18.2661 316.433 18.5303ZM317.713 19.2475C318.281 18.4952 318.524 18.058 319.33 17.0275C318.989 17.4357 318.281 18.3978 317.713 19.2475ZM319.532 19.2238C320.246 18.2916 320.888 17.6384 321.149 17.0046C320.432 18.0633 319.912 18.6427 319.532 19.2238ZM321.35 19.201C321.764 18.5619 322.32 18.0106 322.967 16.9818C322.626 17.3839 322.006 18.3311 321.35 19.201ZM323.17 19.1782C323.539 18.705 323.718 18.4136 324.248 17.699C323.727 18.4882 323.427 18.8235 323.17 19.1782ZM324.989 19.1553C325.136 18.921 325.358 18.5821 326.066 17.6753C325.772 18.0782 325.427 18.5637 324.989 19.1553ZM326.807 19.1325C327.087 18.5988 327.544 18.0537 327.886 17.6525C327.344 18.324 327.138 18.7673 326.807 19.1325ZM328.627 19.1088C328.995 18.8104 329.268 18.3451 329.704 17.6297C329.053 18.4592 328.818 18.7796 328.627 19.1088ZM330.445 19.086C330.797 18.619 331.316 17.9694 331.523 17.6068C331.18 18.0949 330.767 18.5742 330.445 19.086ZM331.726 19.8032C332.26 19.0316 332.789 18.2547 333.343 17.584C332.733 18.5101 332.143 19.1334 331.726 19.8032ZM333.544 19.7804C334.022 19.1079 334.55 18.2292 335.161 17.5603C334.309 18.7252 333.915 19.2949 333.544 19.7804ZM335.363 19.7567C335.874 19.2616 336.138 18.547 336.98 17.5375C335.972 18.9192 335.746 19.3371 335.363 19.7567ZM337.182 19.7338C337.548 19.2686 338.008 18.5786 338.799 17.5147C337.864 18.7752 337.597 19.2589 337.182 19.7338Z" stroke="#B00020" stroke-opacity="0.8" stroke-width="1.109" stroke-linecap="round"/>
<path d="M203.565 14.0937C158.108 14.9057 112.545 16.0039 68.6214 20.1096ZM68.6214 20.1096C46.5571 21.8047 21.8514 21.7432 1.86482 27.3175ZM1.86482 27.3175C1.73966 26.9927 1.05378 29.2487 1.05278 28.5579ZM1.05278 28.5579C0.725362 29.132 2.02503 29.1653 2.10613 29.3541ZM2.10613 29.3541C2.87011 28.6413 2.92919 28.4753 3.06436 29.247ZM3.06436 29.247C8.65953 28.5236 15.3291 27.5352 21.3648 26.9374ZM21.3648 26.9374C41.7179 24.2652 63.7161 22.3077 84.8121 21.0664ZM84.8121 21.0664C113.329 18.3986 140.948 18.4215 169.508 16.9011ZM169.508 16.9011C185.197 16.1654 201.46 17.2803 216.238 16.0566ZM216.238 16.0566C222.458 15.5158 226.648 16.693 233.297 16.0399ZM233.297 16.0399C256.808 15.7818 280.841 16.2585 304.55 18.0932ZM304.55 18.0932C312.5 17.8781 317.376 19.165 325.474 19.1237ZM325.474 19.1237C327.919 18.7173 332.574 20.1675 335.941 19.3423ZM335.941 19.3423C336.736 18.9324 337.4 19.3976 338.06 19.3634ZM338.06 19.3634C337.626 18.7726 338.637 19.7268 338.212 19.3713ZM338.212 19.3713C337.743 20.1359 337.973 18.9429 338.506 19.359ZM338.506 19.359C340.247 19.1474 340.336 18.3627 339.442 18.1467ZM339.442 18.1467C340.036 18.691 338.862 17.8158 338.363 17.3057ZM338.363 17.3057C338.93 17.9799 335.807 16.7053 335.977 17.2812ZM335.977 17.2812C333.006 17.1302 327.935 17.1723 325.558 17.0661ZM325.558 17.0661C317.93 16.2076 312.226 17.2654 304.666 16.0355ZM304.666 16.0355C280.073 15.7564 256.803 13.8585 233.306 13.9779ZM233.306 13.9779C231.104 13.9656 227.235 13.4617 224.578 13.97ZM224.578 13.97C224.872 13.1281 224.252 12.9244 223.779 13.3555ZM223.779 13.3555C223.699 13.0412 220.154 13.8137 218.86 13.0588ZM218.86 13.0588C210.612 12.3381 210.479 12.3907 199.788 11.8175ZM199.788 11.8175C183.578 10.6131 182.505 11.0388 166.14 10.3822ZM166.14 10.3822C136.854 9.67644 108.68 9.13921 79.1339 9.83446ZM79.1339 9.83446C64.2938 9.32092 49.7051 9.90556 34.9512 9.09619ZM34.9512 9.09619C40.5664 8.61953 44.8439 8.18851 49.3487 7.76451ZM49.3487 7.76451C65.7237 6.63386 81.9284 5.41366 98.5898 4.72895ZM98.5898 4.72895C137.675 3.51314 176.944 3.03735 217.045 4.6754ZM217.045 4.6754C207.681 4.25843 200.16 4.30759 191.853 5.03444ZM191.853 5.03444C157.182 4.97035 122.358 4.3901 89.0315 7.54593ZM89.0315 7.54593C87.7479 7.27819 88.576 8.09634 88.0052 8.65025ZM88.0052 8.65025C87.853 9.14096 88.9214 8.80563 89.2008 9.60358ZM89.2008 9.60358C122.501 6.87175 157.164 7.15968 191.884 7.09648ZM191.884 7.09648C204.133 6.21601 216.665 6.058 229.935 6.71286ZM229.935 6.71286C234.143 5.93247 238.622 6.70057 242.994 6.94374ZM242.994 6.94374C244.175 6.52413 245.878 6.83664 246.388 7.04644ZM246.388 7.04644C246.648 6.78397 246.442 6.99816 247.285 6.18879ZM247.285 6.18879C247.855 6.19933 246.519 5.25126 246.308 4.95192ZM246.308 4.95192C238.089 2.66603 224.911 3.79844 218.418 2.68446ZM218.418 2.68446C179.209 0.986725 138.398 0.841882 98.4957 2.66778ZM98.4957 2.66778C82.33 3.35338 66.0671 3.49471 49.1294 5.71476ZM49.1294 5.71476C44.2632 6.26165 37.915 6.74973 31.9183 7.35983ZM31.9183 7.35983C31.3686 7.02713 28.8855 7.08682 27.9172 7.80138ZM27.9172 7.80138C27.3074 8.21133 27.7911 7.59948 27.0601 8.04015ZM27.0601 8.04015C27.0401 8.99788 26.4033 8.84952 26.4453 8.97681ZM26.4453 8.97681C25.7544 8.78807 26.995 9.91346 27.6268 10.1066ZM27.6268 10.1066C45.0552 13.1817 61.8637 12.7761 79.1389 11.8956ZM79.1389 11.8956C107.274 11.6577 137.754 12.2037 166.086 12.4443ZM166.086 12.4443C182.552 13.5565 184.315 13.682 199.654 13.8751ZM199.654 13.8751C201.976 13.4573 203.291 13.9963 203.565 14.0937Z" stroke="#B00020" stroke-opacity="0.8" stroke-linecap="round"/>
</svg>
