<svg width="48" height="43" viewBox="0 0 48 43" fill="none" xmlns="http://www.w3.org/2000/svg">
<path d="M39.1622 0.75708H3.22278C1.44052 0.75708 0 2.3335 0 4.2839V35.3531C0 37.294 1.44052 38.8799 3.22278 38.8799H39.1622C40.9402 38.8799 42.385 37.2988 42.385 35.3531V4.2839C42.385 2.3335 40.9402 0.75708 39.1622 0.75708Z" fill="#B00020"/>
<path d="M40.9444 11.2334H30.7051C28.9574 11.2334 27.4044 12.4453 26.8334 14.2537C26.5566 15.1295 26.3489 15.3472 26.3576 15.3472C26.2797 15.3851 26.0504 15.423 25.3972 15.423C23.1391 15.423 21.3049 17.4302 21.3049 19.9013C21.3049 27.6604 23.2732 34.0134 27.1579 38.8752H39.1665C40.9444 38.8752 42.3893 37.294 42.3893 35.3484V11.5316C41.9351 11.3423 41.4506 11.2334 40.9488 11.2334H40.9444Z" fill="#B00020"/>
<path d="M39.6382 3.7063H2.74707V35.9448H39.6382V3.7063Z" fill="#0D0D0D"/>
<path d="M16.3129 7.93384H6.30713V22.2968H16.3129V7.93384Z" fill="#B00020"/>
<path d="M36.5624 26.458H6.30713V31.5613H36.5624V26.458Z" fill="#B00020"/>
<path d="M36.5623 7.93384H19.4146V13.0371H36.5623V7.93384Z" fill="#B00020"/>
<path d="M36.5623 17.1982H19.4146V22.3015H36.5623V17.1982Z" fill="#B00020"/>
<path d="M24.9346 19.6551C25.0384 29.7148 28.6029 36.8111 35.8271 41.3321C43.0514 36.8016 46.6116 29.7054 46.7197 19.6551C44.6476 19.5983 42.4284 19.0302 41.0874 15.1105H30.5712C29.2345 19.0302 27.011 19.5983 24.9389 19.6551H24.9346Z" fill="#0D0D0D"/>
<path d="M35.8963 42.757C35.5935 42.757 35.3123 42.6765 35.0614 42.5156C27.4825 37.8621 23.7925 30.5102 23.7925 20.0386C23.7925 19.0302 24.5409 18.2065 25.4666 18.2065C27.2056 18.2065 28.3217 18.0077 29.1912 15.2478C29.4248 14.5093 30.0607 14.0122 30.7745 14.0122H41.0138C41.7276 14.0122 42.3635 14.5093 42.5971 15.243C43.4709 18.003 44.587 18.2018 46.326 18.2018C47.2474 18.2018 48.0001 19.0255 48.0001 20.0338C48.0001 30.5054 44.3101 37.8621 36.7182 42.5203C36.4803 42.6718 36.1991 42.7523 35.9006 42.7523L35.8963 42.757ZM25.8603 20.4646C25.9597 29.7291 29.2431 36.2667 35.8963 40.4374C42.5495 36.262 45.8329 29.7291 45.9323 20.4646C44.0246 20.4126 41.9785 19.8871 40.7413 16.2798H31.0513C29.8184 19.8918 27.7723 20.4126 25.8603 20.4646Z" fill="#B00020"/>
<path d="M43.0772 21.6765C41.7318 21.6765 40.5595 21.4872 39.7981 19.0918C39.7376 18.8977 39.5732 18.7604 39.3872 18.7604H32.2668C32.0808 18.7604 31.9164 18.8977 31.8515 19.0918C31.0945 21.4919 29.9222 21.6765 28.5811 21.6765C28.3389 21.6765 28.1399 21.8943 28.1399 22.1594C28.1399 29.1231 30.584 34.0038 35.6064 37.0904C35.6713 37.1377 35.7491 37.1519 35.827 37.1519C35.9049 37.1519 35.9741 37.1377 36.0433 37.0951C41.07 34.0038 43.5141 29.1184 43.5141 22.1594C43.5141 21.8943 43.3151 21.6765 43.0772 21.6765Z" fill="#B00020"/>
</svg>
