<svg width="50" height="44" viewBox="0 0 50 44" fill="none" xmlns="http://www.w3.org/2000/svg">
<path d="M5.21875 1.14436C3.19375 1.57561 1.45938 3.34748 1.10313 5.34436C1.02813 5.72874 1 11.0444 1 22.2194C1 35.86 1.02813 38.6444 1.13125 39.16C1.46875 40.7162 2.58438 42.1319 4.01875 42.7975C4.45 43.0037 5.05 43.21 5.35 43.2662C6.1375 43.4069 43.8625 43.4069 44.65 43.2662C46.675 42.9006 48.4375 41.185 48.8688 39.16C48.9719 38.6444 49 35.86 49 22.2194C49 11.0444 48.9719 5.72874 48.8969 5.34436C48.625 3.84436 47.4625 2.28811 46.0844 1.61311C44.7438 0.95686 46.1406 0.994358 24.9531 1.00373C8.92188 1.00373 5.725 1.03186 5.21875 1.14436ZM44.3125 2.68186C45.5312 2.91623 46.525 3.68498 47.0594 4.81936L47.3594 5.44748L47.3875 8.79436L47.4156 12.1506H25H2.58438L2.6125 8.79436L2.64063 5.44748L2.94063 4.81936C3.45625 3.72248 4.46875 2.91623 5.6125 2.69123C6.20312 2.56936 43.7031 2.56936 44.3125 2.68186ZM47.4062 26.1006C47.4062 39.7412 47.4344 39.0475 46.8156 40.0225C46.4031 40.66 45.9156 41.0819 45.1562 41.4381L44.5469 41.7287H25H5.45312L4.84375 41.4381C4.08438 41.0819 3.59688 40.66 3.18438 40.0225C2.56562 39.0475 2.59375 39.7412 2.59375 26.1006V13.7444H25H47.4062V26.1006Z" fill="#B00020" stroke="#B00020"/>
<path d="M4.1482 8.66164C3.31728 6.90965 4.35649 4.8128 6.25937 4.45018L6.25962 4.45013C7.25542 4.25999 8.11795 4.51733 8.87691 5.22097C9.45151 5.75081 9.8438 6.61268 9.8438 7.36942C9.8438 7.72435 9.73872 8.12457 9.59236 8.47741C9.44571 8.83094 9.23514 9.19109 8.98083 9.45191C7.5305 10.9472 5.03947 10.5452 4.1482 8.66164ZM7.14871 7.62159C7.18212 7.59233 7.19188 7.57442 7.19198 7.57448C7.24797 7.44925 7.24875 7.38061 7.2431 7.34432C7.23771 7.3097 7.21825 7.25061 7.13283 7.15899C7.00505 7.02442 6.92775 6.99496 6.89134 6.98758C6.8603 6.98129 6.79317 6.9772 6.65178 7.04789C6.3464 7.20058 6.40065 7.69333 6.74123 7.77158C6.77332 7.7779 6.87524 7.7737 7.00552 7.71253C7.06455 7.68481 7.11367 7.65228 7.14871 7.62159Z" fill="#B00020" stroke="#B00020"/>
<path d="M11.5625 7.4183H11.5625V7.41618C11.5625 6.2229 12.2525 5.16411 13.3587 4.67212C13.7004 4.51907 14.1175 4.43181 14.5469 4.43181C17.2061 4.43181 18.5239 7.62439 16.6442 9.50411C14.766 11.3823 11.5738 10.0777 11.5625 7.4183ZM14.8104 7.13715L14.8096 7.13628C14.6796 6.98022 14.431 6.95392 14.253 7.12352C14.1472 7.23407 14.1223 7.39383 14.1887 7.55184C14.2557 7.71141 14.3898 7.80681 14.5469 7.80681C14.6204 7.80681 14.6511 7.79658 14.6702 7.78802C14.6944 7.77727 14.7365 7.75243 14.8135 7.67984C14.9147 7.57358 14.9386 7.48766 14.94 7.42839C14.9414 7.36568 14.9188 7.26663 14.8104 7.13715ZM13.9 6.76931C14.275 6.40368 14.8656 6.42243 15.1937 6.81618L13.9 6.76931Z" fill="#B00020" stroke="#B00020"/>
<path d="M21.3531 5.09126L21.1869 4.61967C23.1477 3.92896 25.2187 5.32177 25.2187 7.41626C25.2187 9.0799 23.898 10.4006 22.2343 10.4006L22.2322 10.4006C19.5728 10.3894 18.2682 7.19711 20.1464 5.31896C20.4221 5.04329 20.8501 4.73625 21.1895 4.61877L21.3531 5.09126ZM21.3531 5.09126C23.0031 4.51001 24.7187 5.68188 24.7187 7.41626C24.7187 8.80376 23.6218 9.90063 22.2343 9.90063C20.0218 9.89126 18.9343 7.23813 20.5 5.67251C20.7437 5.42876 21.1093 5.17563 21.3531 5.09126ZM22.5292 7.70804C22.668 7.56776 22.69 7.35133 22.5009 7.15259C22.4239 7.08001 22.3818 7.05517 22.3577 7.04442C22.3385 7.03587 22.3079 7.02563 22.2343 7.02563C22.0323 7.02563 21.8437 7.21428 21.8437 7.41626C21.8437 7.57338 21.9391 7.70739 22.0987 7.77442C22.2577 7.84124 22.4186 7.8156 22.5292 7.70804Z" fill="#B00020" stroke="#B00020"/>
<path d="M26.7155 18.4412C26.378 18.2912 26.1624 18.3193 25.8905 18.5443L26.7155 18.4412ZM26.7155 18.4412L26.9169 17.9835C27.1564 18.089 27.3352 18.2866 27.4494 18.4719C27.5652 18.66 27.6561 18.9023 27.6561 19.1537C27.6561 19.1856 27.6529 19.2122 27.6522 19.2181M26.7155 18.4412L26.9186 17.9843C26.7073 17.8904 26.4723 17.8237 26.2158 17.8561C25.9566 17.8888 25.7479 18.0133 25.5717 18.1591M25.562 18.1672L25.5526 18.1757C25.4106 18.306 25.3258 18.4632 25.2457 18.6907C25.1688 18.9094 25.0791 19.2438 24.9538 19.7762C24.7013 20.8488 24.2849 22.8086 23.5168 26.4569C22.7721 29.9934 22.3629 31.9569 22.1542 33.0651C22.0505 33.616 21.9929 33.9726 21.9699 34.2111C21.9488 34.4298 21.9435 34.6449 22.0366 34.8388L22.0371 34.8398L22.0371 34.8398C22.46 35.7159 23.6253 35.841 24.1985 35.024C24.2484 34.9537 24.2758 34.8799 24.2843 34.857C24.2848 34.8558 24.2852 34.8547 24.2855 34.8537C24.3021 34.8096 24.3186 34.7583 24.3348 34.7045C24.3674 34.5956 24.4067 34.449 24.4519 34.2693C24.5427 33.9084 24.6631 33.3924 24.8116 32.7303C25.1088 31.4051 25.5219 29.4806 26.0422 27.0099L25.562 18.1672ZM25.562 18.1672L25.5717 18.1591M25.562 18.1672L25.5717 18.1591M25.5717 18.1591L27.6522 19.2181M27.6522 19.2181L27.6521 19.2187M27.6522 19.2181L27.6521 19.2187M27.6521 19.2187C27.6509 19.2292 27.6495 19.239 27.6484 19.2463M27.6521 19.2187L27.6484 19.2463M27.6484 19.2463C27.6461 19.2614 27.6432 19.2784 27.6402 19.2956M27.6484 19.2463L27.6402 19.2956M27.6402 19.2956C27.634 19.3306 27.6253 19.3774 27.6144 19.434M27.6402 19.2956L27.6144 19.434M27.6144 19.434C27.5925 19.5478 27.5605 19.709 27.5197 19.9115M27.6144 19.434L27.5197 19.9115M27.5197 19.9115C27.438 20.3169 27.32 20.8924 27.1747 21.5952M27.5197 19.9115L27.1747 21.5952M27.1747 21.5952C26.8839 23.0011 26.483 24.9189 26.0423 27.0099L27.1747 21.5952Z" fill="#B00020" stroke="#B00020"/>
<path d="M19.6283 31.7256L19.3982 32.1694C19.3383 32.1384 19.2709 32.0879 19.233 32.0596C19.1805 32.0202 19.1146 31.969 19.0386 31.9087C18.8861 31.7878 18.6838 31.6235 18.4489 31.4303C17.9787 31.0435 17.3713 30.5357 16.7569 30.017C15.5405 28.9899 14.2595 27.8889 13.9873 27.6166C13.7884 27.4178 13.6238 27.1812 13.5594 26.9004C13.4918 26.6063 13.5475 26.3229 13.6858 26.0683C13.722 26.0017 13.771 25.95 13.7781 25.9425C13.7785 25.9421 13.7787 25.9418 13.7789 25.9417C13.7983 25.9206 13.8206 25.898 13.8428 25.8762C13.888 25.8317 13.9482 25.7751 14.0189 25.7099C14.1613 25.5786 14.3583 25.4016 14.5914 25.1948C15.0583 24.7806 15.677 24.2406 16.3084 23.6949C17.5559 22.6167 18.8965 21.4779 19.1797 21.2771L19.1797 21.277L19.1862 21.2726C19.6996 20.9205 20.3517 20.9538 20.804 21.4036C21.2743 21.8618 21.3238 22.6539 20.8709 23.1455C20.8132 23.21 20.7044 23.3088 20.5992 23.4032C20.4675 23.5214 20.2901 23.6775 20.0809 23.8597C19.662 24.2244 19.1098 24.699 18.5282 25.1963L18.5264 25.1978C17.948 25.6876 17.4265 26.1416 17.0519 26.4767C16.9746 26.5459 16.904 26.6096 16.8408 26.6672C16.9053 26.7238 16.977 26.7864 17.055 26.8543C17.4236 27.1751 17.9284 27.6097 18.4806 28.0824C19.5774 29.0119 20.6196 29.9192 20.7881 30.0876L20.7971 30.0966L20.8056 30.106C21.1913 30.533 21.3147 31.1702 21.0358 31.697L21.0358 31.697L21.0347 31.6992C20.8697 32.0071 20.54 32.1645 20.2957 32.2313C20.0447 32.2999 19.6918 32.3261 19.393 32.1667L19.6283 31.7256ZM19.6283 31.7256C19.9096 31.8756 20.4533 31.7256 20.5939 31.4631M19.6283 31.7256C19.3752 31.5943 14.8471 27.7693 14.3408 27.2631C14.0221 26.9443 13.9471 26.6349 14.1252 26.3068C14.2096 26.1474 18.9533 22.0506 19.4689 21.6849L20.5939 31.4631M20.5939 31.4631C20.7627 31.1443 20.6971 30.7318 20.4346 30.4412L20.5939 31.4631Z" fill="#B00020" stroke="#B00020"/>
<path d="M31.4737 25.1978L31.4737 25.1978L31.4719 25.1963C30.8903 24.699 30.3382 24.2244 29.9193 23.8597C29.71 23.6775 29.5326 23.5214 29.4009 23.4032C29.2958 23.3088 29.1869 23.21 29.1292 23.1455C28.6764 22.6539 28.7258 21.8618 29.1961 21.4036C29.6484 20.9538 30.3006 20.9205 30.814 21.2726L30.814 21.2725L30.8204 21.2771C31.1036 21.4779 32.4442 22.6167 33.6918 23.6949C34.3231 24.2406 34.9419 24.7806 35.4087 25.1948C35.6418 25.4016 35.8389 25.5786 35.9812 25.7099C36.052 25.7751 36.1121 25.8317 36.1573 25.8762C36.1795 25.898 36.2018 25.9206 36.2213 25.9417C36.2214 25.9418 36.2217 25.9421 36.222 25.9425C36.2292 25.95 36.2782 26.0017 36.3144 26.0683C36.4526 26.3229 36.5083 26.6063 36.4408 26.9004C36.3763 27.1812 36.2117 27.4178 36.0129 27.6166C35.7406 27.8889 34.4597 28.9899 33.2432 30.017C32.6288 30.5357 32.0215 31.0435 31.5512 31.4303C31.3163 31.6235 31.114 31.7878 30.9615 31.9087C30.8856 31.969 30.8196 32.0202 30.7671 32.0596C30.7304 32.0871 30.6656 32.1356 30.6071 32.1667C30.3084 32.3261 29.9554 32.2999 29.7045 32.2313C29.4601 32.1645 29.1304 32.0071 28.9655 31.6992L28.9655 31.6992L28.9643 31.697C28.6847 31.1689 28.809 30.5281 29.2098 30.0996L29.2102 30.0992C29.3025 30.0007 29.6192 29.7188 30.0187 29.3706C30.4318 29.0104 30.9653 28.5521 31.5195 28.0824C32.0718 27.6097 32.5765 27.1751 32.9452 26.8543C33.0231 26.7864 33.0948 26.7238 33.1594 26.6672C33.0961 26.6096 33.0255 26.5459 32.9482 26.4767C32.5737 26.1416 32.0522 25.6876 31.4737 25.1978Z" fill="#B00020" stroke="#B00020"/>
</svg>
